<svg width="40" height="40" viewBox="0 0 40 40" fill="none" xmlns="http://www.w3.org/2000/svg">
<path d="M33.75 23.5832V30.6666C33.75 32.4907 32.4385 34.0598 30.6303 34.2999C27.1524 34.7617 23.604 35 20 35C16.396 35 12.8476 34.7617 9.36974 34.2999C7.56149 34.0598 6.25 32.4907 6.25 30.6666V23.5832M33.75 23.5832C34.5365 22.9127 35 21.8981 35 20.8148V14.5095C35 12.7079 33.7202 11.1514 31.9384 10.8848C30.0628 10.6041 28.1658 10.3886 26.25 10.2405M33.75 23.5832C33.4273 23.8583 33.0503 24.0754 32.6285 24.2156C28.6589 25.5354 24.4129 26.25 20 26.25C15.5871 26.25 11.3412 25.5354 7.37148 24.2156C6.94974 24.0754 6.57268 23.8582 6.25 23.5832M6.25 23.5832C5.46346 22.9127 5 21.8981 5 20.8148V14.5095C5 12.7079 6.27984 11.1514 8.06157 10.8848C9.93722 10.6041 11.8342 10.3886 13.75 10.2405M26.25 10.2405V8.75C26.25 6.67893 24.5711 5 22.5 5H17.5C15.4289 5 13.75 6.67893 13.75 8.75V10.2405M26.25 10.2405C24.1876 10.0812 22.1033 10 20 10C17.8967 10 15.8124 10.0812 13.75 10.2405M20 21.25H20.0125V21.2625H20V21.25Z" stroke="white" stroke-width="1.5" stroke-linecap="round" stroke-linejoin="round"/>
</svg>
