<svg width="40" height="40" viewBox="0 0 40 40" fill="none" xmlns="http://www.w3.org/2000/svg">
<path d="M33.75 10.625C33.75 14.422 27.5939 17.5 20 17.5C12.4061 17.5 6.25 14.422 6.25 10.625M33.75 10.625C33.75 6.82804 27.5939 3.75 20 3.75C12.4061 3.75 6.25 6.82804 6.25 10.625M33.75 10.625V29.375C33.75 33.172 27.5939 36.25 20 36.25C12.4061 36.25 6.25 33.172 6.25 29.375V10.625M33.75 10.625V16.875M6.25 10.625V16.875M33.75 16.875V23.125C33.75 26.922 27.5939 30 20 30C12.4061 30 6.25 26.922 6.25 23.125V16.875M33.75 16.875C33.75 20.672 27.5939 23.75 20 23.75C12.4061 23.75 6.25 20.672 6.25 16.875" stroke="white" stroke-width="1.5" stroke-linecap="round" stroke-linejoin="round"/>
</svg>
