<svg width="40" height="41" viewBox="0 0 40 41" fill="none" xmlns="http://www.w3.org/2000/svg">
<path d="M20 35.0137C26.9876 35.0137 32.8593 30.2357 34.5262 23.7686M20 35.0137C13.0124 35.0137 7.1407 30.2357 5.47383 23.7686M20 35.0137C24.1421 35.0137 27.5 28.2979 27.5 20.0137C27.5 11.7294 24.1421 5.01367 20 5.01367M20 35.0137C15.8579 35.0137 12.5 28.2979 12.5 20.0137C12.5 11.7294 15.8579 5.01367 20 5.01367M20 5.01367C25.6087 5.01367 30.4983 8.0919 33.0718 12.6511M20 5.01367C14.3913 5.01367 9.50165 8.0919 6.92821 12.6511M33.0718 12.6511C29.5662 15.681 24.9971 17.5137 20 17.5137C15.0029 17.5137 10.4338 15.681 6.92821 12.6511M33.0718 12.6511C34.2995 14.8261 35 17.3381 35 20.0137C35 21.3103 34.8355 22.5685 34.5262 23.7686M34.5262 23.7686C30.2223 26.1549 25.2698 27.5137 20 27.5137C14.7302 27.5137 9.77771 26.1549 5.47383 23.7686M5.47383 23.7686C5.16452 22.5685 5 21.3103 5 20.0137C5 17.3381 5.70054 14.8261 6.92821 12.6511" stroke="white" stroke-width="1.5" stroke-linecap="round" stroke-linejoin="round"/>
</svg>
