<svg width="1300" height="53" viewBox="0 0 1300 53" fill="none" xmlns="http://www.w3.org/2000/svg">
<path d="M27.9064 11.939C28.5995 11.2286 29.5407 10.8295 30.5207 10.8295C34.9302 10.8295 39.0856 10.8295 43.1778 10.8295C51.4084 10.8296 55.5299 21.0302 49.71 26.996L37.0329 39.991C36.4509 40.5876 35.4558 40.165 35.4558 39.3213V27.8758L36.9208 26.374C38.0848 25.1809 37.2604 23.1407 35.6143 23.1407H16.9788L27.9064 11.939Z" fill="url(#paint0_linear_2303_1205)" fill-opacity="0.35"/>
<path d="M24.528 39.0776C23.8351 39.788 22.8939 40.1871 21.9138 40.1871C17.5043 40.1871 13.3489 40.1871 9.2567 40.1871C1.02609 40.187 -3.0954 29.9865 2.7245 24.0206L15.4016 11.0256C15.9836 10.4291 16.9787 10.8516 16.9787 11.6953L16.9788 23.1407L15.5137 24.6426C14.3497 25.8358 15.1741 27.8759 16.8202 27.8759L35.4558 27.8758L24.528 39.0776Z" fill="url(#paint1_linear_2303_1205)" fill-opacity="0.35"/>
<path d="M125.956 20.6664V35.4244H130.354V20.6664H125.956Z" fill="url(#paint2_linear_2303_1205)" fill-opacity="0.35"/>
<path d="M126.262 18.2112C126.782 18.7233 127.417 18.9793 128.169 18.9793C128.921 18.9793 129.552 18.7233 130.062 18.2112C130.582 17.6992 130.842 17.0774 130.842 16.3459C130.842 15.5961 130.582 14.9697 130.062 14.4668C129.552 13.9548 128.921 13.6988 128.169 13.6988C127.417 13.6988 126.782 13.9548 126.262 14.4668C125.742 14.9697 125.482 15.5961 125.482 16.3459C125.482 17.0774 125.742 17.6992 126.262 18.2112Z" fill="url(#paint3_linear_2303_1205)" fill-opacity="0.35"/>
<path fill-rule="evenodd" clip-rule="evenodd" d="M132.836 41.1851V20.6664H137.012V22.1339H137.067C137.33 21.8786 137.613 21.6454 137.917 21.4344C138.9 20.7578 140.032 20.4195 141.313 20.4195C142.436 20.4195 143.508 20.7075 144.529 21.2836C145.559 21.8596 146.394 22.7146 147.034 23.8484C147.674 24.9822 147.985 26.395 147.967 28.0865C147.976 29.3667 147.795 30.4822 147.424 31.4332C147.052 32.375 146.551 33.1568 145.921 33.7786C145.29 34.4003 144.584 34.8667 143.804 35.1776C143.025 35.4884 142.237 35.6439 141.438 35.6439C140.176 35.6439 139.044 35.2965 138.042 34.6015C137.789 34.4243 137.551 34.2323 137.325 34.0255H137.234V41.1851H132.836ZM140.408 32.0229C141.058 32.0138 141.628 31.8447 142.121 31.5155C142.612 31.1863 142.998 30.72 143.276 30.1165C143.554 29.513 143.689 28.8089 143.679 28.0042C143.689 27.1813 143.55 26.4773 143.262 25.892C142.983 25.2977 142.589 24.845 142.079 24.5341C141.569 24.2142 140.983 24.0587 140.325 24.0678C139.703 24.0587 139.146 24.2096 138.655 24.5205C138.163 24.8314 137.773 25.284 137.485 25.8783C137.198 26.4635 137.054 27.1722 137.054 28.0042C137.054 28.8089 137.198 29.513 137.485 30.1165C137.782 30.72 138.181 31.1863 138.682 31.5155C139.184 31.8447 139.759 32.0138 140.408 32.0229Z" fill="url(#paint4_linear_2303_1205)" fill-opacity="0.35"/>
<path d="M152.202 35.1913C153.019 35.493 153.873 35.6439 154.763 35.6439C155.784 35.6439 156.717 35.4473 157.561 35.0541C158.415 34.661 159.097 34.1123 159.608 33.4083C160.127 32.695 160.387 31.8766 160.387 30.9531C160.387 30.2216 160.229 29.6044 159.914 29.1016C159.607 28.5986 159.217 28.1871 158.745 27.8671C158.28 27.5471 157.802 27.2956 157.311 27.1128C156.819 26.9207 156.387 26.7744 156.016 26.6738C155.533 26.5367 155.07 26.395 154.624 26.2487C154.179 26.1024 153.812 25.9286 153.524 25.7274C153.237 25.5263 153.093 25.2611 153.093 24.9319C153.093 24.6028 153.237 24.3284 153.524 24.109C153.812 23.8896 154.174 23.7798 154.611 23.7798C155.13 23.7798 155.557 23.917 155.891 24.1913C156.234 24.4656 156.494 24.7491 156.67 25.0417L160.052 23.6015C159.626 22.6505 158.902 21.887 157.882 21.311C156.87 20.7349 155.728 20.4469 154.457 20.4469C153.437 20.4469 152.527 20.6343 151.729 21.0092C150.94 21.3841 150.314 21.9053 149.849 22.5728C149.395 23.2312 149.168 23.9947 149.168 24.8633C149.168 25.6863 149.363 26.3858 149.752 26.9619C150.142 27.5379 150.648 28.0134 151.27 28.3883C151.9 28.7541 152.569 29.0421 153.274 29.2524C153.581 29.3347 153.915 29.4261 154.276 29.5267C154.647 29.6273 155 29.7461 155.334 29.8833C155.668 30.0205 155.942 30.1851 156.155 30.3771C156.369 30.5691 156.476 30.7977 156.476 31.0629C156.476 31.2732 156.402 31.4697 156.252 31.6526C156.114 31.8355 155.918 31.9864 155.668 32.1052C155.417 32.215 155.125 32.2698 154.791 32.2698C154.16 32.2698 153.613 32.0778 153.148 31.6938C152.685 31.3097 152.337 30.9029 152.105 30.4731L148.652 31.9681C148.968 32.7088 149.437 33.3579 150.058 33.9157C150.68 34.4643 151.395 34.8895 152.202 35.1913Z" fill="url(#paint5_linear_2303_1205)" fill-opacity="0.35"/>
<path d="M178.267 35.4244V20.6664H182.457V22.5454H182.533C182.861 22.0964 183.23 21.717 183.64 21.407C184.476 20.7669 185.464 20.4469 186.605 20.4469C187.551 20.4469 188.354 20.6755 189.014 21.1327C189.521 21.4735 189.936 21.9307 190.256 22.5042H190.335C190.809 21.9086 191.385 21.4422 192.061 21.1053C192.943 20.6664 193.903 20.4469 194.943 20.4469C195.936 20.4469 196.753 20.6206 197.393 20.9681C198.033 21.3064 198.534 21.7545 198.896 22.3123C199.258 22.8609 199.513 23.4644 199.661 24.1227C199.811 24.7719 199.885 25.4028 199.885 26.0155V35.4244H195.458V26.5504C195.458 25.7457 195.286 25.1285 194.943 24.6987C194.609 24.2599 194.117 24.0404 193.467 24.0404C193.04 24.0404 192.66 24.1365 192.326 24.3284C192.002 24.5113 191.742 24.7902 191.547 25.1651C191.361 25.54 191.268 26.0018 191.268 26.5504V35.4244H186.87V26.5504C186.87 25.7457 186.698 25.1285 186.354 24.6987C186.011 24.2599 185.515 24.0404 184.865 24.0404C184.234 24.0404 183.71 24.2553 183.292 24.6851C182.875 25.1057 182.666 25.7366 182.666 26.5779V35.4244H178.267Z" fill="url(#paint6_linear_2303_1205)" fill-opacity="0.35"/>
<path d="M167.503 35.6439C166.473 35.6439 165.536 35.429 164.692 34.9993C163.847 34.5604 163.175 33.9203 162.673 33.0791C162.182 32.2287 161.936 31.1817 161.936 29.9382V20.6664H166.334V29.3621C166.334 30.2125 166.557 30.8617 167.002 31.3097C167.457 31.7487 168.01 31.9681 168.659 31.9681C169.142 31.9681 169.564 31.8629 169.926 31.6526C170.297 31.4423 170.584 31.1452 170.789 30.7611C171.002 30.3679 171.109 29.9016 171.109 29.3621V20.6664H175.507V30.2536C175.507 30.784 175.587 31.168 175.744 31.4057C175.902 31.6435 176.222 31.8493 176.704 32.0229L175.145 35.6439C174.041 35.3605 173.234 34.9902 172.724 34.533C172.467 34.3026 172.272 34.0374 172.139 33.7375H172.028C171.639 34.1224 171.208 34.4654 170.733 34.7661C169.796 35.3513 168.719 35.6439 167.503 35.6439Z" fill="url(#paint7_linear_2303_1205)" fill-opacity="0.35"/>
<path fill-rule="evenodd" clip-rule="evenodd" d="M116.431 35.6439C114.993 35.6439 113.679 35.3193 112.492 34.6701C111.313 34.0209 110.372 33.1248 109.666 31.9818C108.97 30.8388 108.622 29.5221 108.622 28.0317C108.622 26.5412 108.97 25.2246 109.666 24.0815C110.372 22.9386 111.313 22.0471 112.492 21.407C113.679 20.7669 114.993 20.4469 116.431 20.4469C117.897 20.4469 119.219 20.7669 120.398 21.407C121.577 22.0471 122.509 22.9386 123.196 24.0815C123.892 25.2246 124.24 26.5412 124.24 28.0317C124.24 29.5221 123.892 30.8388 123.196 31.9818C122.509 33.1248 121.572 34.0209 120.384 34.6701C119.206 35.3193 117.888 35.6439 116.431 35.6439ZM116.431 31.9406C117.118 31.9406 117.735 31.7761 118.282 31.4469C118.83 31.1177 119.261 30.6606 119.577 30.0753C119.892 29.4902 120.05 28.8089 120.05 28.0317C120.05 27.2819 119.897 26.6144 119.591 26.0292C119.285 25.444 118.862 24.9868 118.324 24.6576C117.786 24.3193 117.164 24.1501 116.459 24.1501C115.763 24.1501 115.136 24.3147 114.58 24.6439C114.032 24.9639 113.601 25.4165 113.285 26.0018C112.97 26.5869 112.812 27.2636 112.812 28.0317C112.812 28.8089 112.97 29.4902 113.285 30.0753C113.61 30.6606 114.046 31.1177 114.594 31.4469C115.142 31.7761 115.754 31.9406 116.431 31.9406Z" fill="url(#paint8_linear_2303_1205)" fill-opacity="0.35"/>
<path fill-rule="evenodd" clip-rule="evenodd" d="M95.6038 40.9519C96.6427 41.2536 97.7843 41.4045 99.0277 41.4045C100.188 41.4045 101.25 41.2582 102.216 40.9656C103.181 40.6822 104.016 40.2524 104.721 39.6763C105.435 39.1003 105.987 38.3871 106.378 37.5367C106.767 36.6863 106.962 35.6988 106.962 34.5741V20.6526H102.967V22.0927H102.884C102.618 21.842 102.33 21.6134 102.02 21.407C101.055 20.7578 99.9281 20.4332 98.6382 20.4332C97.5244 20.4332 96.4525 20.7121 95.4225 21.2698C94.3925 21.8185 93.5483 22.6414 92.8892 23.7387C92.2397 24.8268 91.9146 26.1938 91.9146 27.8397C91.9146 29.0741 92.1049 30.1485 92.4854 31.0629C92.8659 31.9772 93.3716 32.7407 94.003 33.3534C94.6435 33.9569 95.3528 34.4095 96.1326 34.7112C96.9124 35.0039 97.6959 35.1502 98.4847 35.1502C99.7566 35.1502 100.888 34.8072 101.882 34.1215C102.196 33.9016 102.489 33.6593 102.761 33.3945H102.828V34.821C102.828 35.525 102.596 36.092 102.132 36.5217C101.668 36.9606 101.106 37.2807 100.448 37.4818C99.7888 37.683 99.1528 37.7835 98.5408 37.7835C97.8262 37.7835 97.1206 37.6693 96.4247 37.4407C95.7379 37.2212 95.1348 36.9561 94.6157 36.6452L93.1678 40.0467C93.7618 40.3576 94.5738 40.6593 95.6038 40.9519ZM101.339 31.1315C100.828 31.4607 100.239 31.6252 99.5708 31.6252C98.9116 31.6252 98.3319 31.4607 97.8307 31.1315C97.3296 30.7931 96.9356 30.3314 96.648 29.7461C96.3603 29.1518 96.2158 28.4706 96.2158 27.7025C96.2158 26.9344 96.3603 26.2669 96.648 25.7C96.9446 25.1331 97.3528 24.6987 97.8727 24.397C98.3925 24.0861 98.9813 23.9307 99.6405 23.9307C100.299 23.9307 100.879 24.0815 101.381 24.3833C101.882 24.6851 102.276 25.1194 102.563 25.6863C102.851 26.2441 102.995 26.9161 102.995 27.7025C102.995 28.4797 102.846 29.1655 102.55 29.7599C102.252 30.3451 101.849 30.8023 101.339 31.1315Z" fill="url(#paint9_linear_2303_1205)" fill-opacity="0.35"/>
<path fill-rule="evenodd" clip-rule="evenodd" d="M82.9888 35.6439C81.5506 35.6439 80.2374 35.3193 79.0494 34.6701C77.8711 34.0209 76.9288 33.1248 76.224 31.9818C75.5281 30.8388 75.1798 29.5221 75.1798 28.0317C75.1798 26.5412 75.5281 25.2246 76.224 24.0815C76.9288 22.9386 77.8711 22.0471 79.0494 21.407C80.2374 20.7669 81.5506 20.4469 82.9888 20.4469C84.4547 20.4469 85.7775 20.7669 86.9558 21.407C88.1341 22.0471 89.0667 22.9386 89.7535 24.0815C90.4494 25.2246 90.7977 26.5412 90.7977 28.0317C90.7977 29.5221 90.4494 30.8388 89.7535 31.9818C89.0667 33.1248 88.1296 34.0209 86.9416 34.6701C85.7633 35.3193 84.4457 35.6439 82.9888 35.6439ZM82.9888 31.9406C83.6756 31.9406 84.2921 31.7761 84.8397 31.4469C85.3873 31.1177 85.8187 30.6606 86.1348 30.0753C86.4502 29.4902 86.6075 28.8089 86.6075 28.0317C86.6075 27.2819 86.4547 26.6144 86.1483 26.0292C85.8419 25.444 85.4202 24.9868 84.8816 24.6576C84.3438 24.3193 83.7213 24.1501 83.0165 24.1501C82.3206 24.1501 81.6944 24.3147 81.1371 24.6439C80.5895 24.9639 80.158 25.4165 79.8427 26.0018C79.5273 26.5869 79.3693 27.2636 79.3693 28.0317C79.3693 28.8089 79.5273 29.4902 79.8427 30.0753C80.1678 30.6606 80.6037 31.1177 81.1513 31.4469C81.6989 31.7761 82.3109 31.9406 82.9888 31.9406Z" fill="url(#paint10_linear_2303_1205)" fill-opacity="0.35"/>
<path d="M63.2885 15.2075V35.4244H75.2457V31.4195H67.8541V15.2075H63.2885Z" fill="url(#paint11_linear_2303_1205)" fill-opacity="0.35"/>
<path d="M357.147 19.6247C357.147 26.1292 357.147 28.6969 348.544 28.6969C357.147 28.6969 357.147 31.2645 357.147 37.7691C357.147 31.3032 357.147 28.6969 365.614 28.6969C357.147 28.6969 357.147 26.0906 357.147 19.6247Z" fill="url(#paint12_linear_2303_1205)" fill-opacity="0.35"/>
<path fill-rule="evenodd" clip-rule="evenodd" d="M314.732 43.2072C311.757 43.2072 309.142 42.6104 306.886 41.4167C304.654 40.1982 302.906 38.5072 301.642 36.3437C301.438 35.9841 301.251 35.6148 301.081 35.2358L300.082 42.6849H280.261V42.3121H280.298C281.19 42.3121 281.909 42.0757 282.455 41.6033C283 41.1308 283.273 40.447 283.273 39.5517V18.0658C283.273 17.1706 283 16.4494 282.455 15.9023C281.909 15.3552 281.19 15.0817 280.298 15.0817H280.261V14.7086H292.124V15.0817H291.975C291.082 15.0817 290.363 15.3552 289.818 15.9023C289.273 16.4494 289 17.1706 289 18.0658V39.7009C289 40.4967 289.186 41.1184 289.558 41.566C289.954 41.9887 290.636 42.2001 291.603 42.2001H292.384C294.591 42.2001 296.45 41.5163 297.962 40.1485C299.437 38.8144 300.382 36.9483 300.796 34.5498C300.12 32.7952 299.783 30.8442 299.783 28.6969C299.783 25.7873 300.402 23.2508 301.642 21.0872C302.906 18.8988 304.654 17.2078 306.886 16.0141C309.142 14.7956 311.757 14.1864 314.732 14.1864C317.636 14.1864 320.185 14.7667 322.38 15.9271C324.721 14.7667 327.441 14.1864 330.538 14.1864C331.504 14.1864 332.298 14.2237 332.918 14.2982C333.562 14.3481 334.132 14.4103 334.628 14.4848C335.124 14.5594 335.67 14.634 336.265 14.7086C336.884 14.7583 337.653 14.7832 338.57 14.7832L339.686 22.2437H339.314C338.868 19.8812 337.864 18.0285 336.302 16.6856C334.765 15.3427 332.843 14.6713 330.538 14.6713C329.124 14.6713 327.835 15.007 326.67 15.6784C325.902 16.1208 325.21 16.6764 324.593 17.3454C324.306 17.6566 324.035 17.9925 323.781 18.3529C323.752 18.3936 323.723 18.4345 323.695 18.4759C323.456 18.8321 323.232 19.2096 323.022 19.6084C322.746 20.1332 322.496 20.6955 322.272 21.2938C322.179 21.5408 322.091 21.7942 322.007 22.054C321.92 22.3218 321.838 22.5965 321.761 22.8778C321.315 24.5936 321.092 26.4961 321.092 28.5849C321.092 30.5104 321.266 32.2811 321.616 33.8971L321.025 35.6578C320.716 36.5791 320.346 37.3853 319.92 38.0835C319.659 38.4979 319.381 38.8699 319.09 39.202L319.062 39.2339C318.142 38.3928 317.355 37.4295 316.703 36.3437C315.389 34.1553 314.732 31.5814 314.732 28.6222C314.732 25.7375 315.389 23.2135 316.703 21.05C317.601 19.5726 318.741 18.3216 320.123 17.2965C319.564 16.6459 318.945 16.1065 318.265 15.6784C317.199 15.007 316.022 14.6713 314.732 14.6713C313.443 14.6713 312.266 15.007 311.199 15.6784C310.133 16.3499 309.229 17.2948 308.485 18.5135C307.716 19.732 307.121 21.2115 306.7 22.9523C306.303 24.6681 306.105 26.5706 306.105 28.6595C306.105 30.7485 306.303 32.6508 306.7 34.3666C307.121 36.0826 307.716 37.5498 308.485 38.7683C309.229 39.9869 310.133 40.9319 311.199 41.6033C312.266 42.2747 313.443 42.6104 314.732 42.6104C316.022 42.6104 317.199 42.2747 318.265 41.6033C319.331 40.9319 320.249 39.9869 321.017 38.7683C321.761 37.5498 322.331 36.0826 322.728 34.3666C323.149 32.6508 323.36 30.7485 323.36 28.6595C323.36 26.7709 323.188 25.0346 322.843 23.4509L323.481 21.7493C323.844 20.7807 324.274 19.9353 324.763 19.205C324.894 19.0144 325.029 18.8324 325.169 18.6589C325.29 18.508 325.414 18.3635 325.542 18.2252L325.57 18.2017C326.433 19.0416 327.172 20.0033 327.786 21.0872C329.05 23.2508 329.682 25.7873 329.682 28.6969C329.682 31.6064 329.05 34.1553 327.786 36.3437C326.945 37.8105 325.871 39.0601 324.563 40.0926C325.112 40.6953 325.715 41.1989 326.372 41.6033C327.488 42.2747 328.728 42.6104 330.091 42.6104C331.108 42.6104 332.075 42.4364 332.992 42.0882C333.934 41.74 334.653 41.3049 335.149 40.7826V31.2708C335.149 30.3754 334.876 29.6542 334.331 29.1071C333.785 28.56 333.066 28.2864 332.174 28.2864H332.062V27.9134H342.212C342.314 25.3296 342.929 23.0543 344.056 21.0872C345.321 18.8988 347.068 17.2078 349.3 16.0141C351.556 14.7956 354.171 14.1864 357.147 14.1864C360.122 14.1864 362.725 14.7956 364.956 16.0141C367.212 17.2078 368.96 18.8988 370.2 21.0872C371.014 22.4811 371.567 24.0299 371.856 25.7335V18.0658C371.856 17.1706 371.584 16.4494 371.038 15.9023C370.493 15.3552 369.774 15.0817 368.881 15.0817H368.844V14.7086H391.22C393.129 14.7335 394.79 15.0692 396.203 15.7158C397.641 16.3375 398.756 17.2078 399.55 18.327C399.849 18.7353 400.092 19.1703 400.282 19.6318C400.586 18.1913 401.327 17.0102 402.502 16.0888C404.114 14.8205 406.234 14.1864 408.861 14.1864C409.506 14.1864 410.027 14.2112 410.424 14.2611C410.592 14.2808 410.755 14.3025 410.915 14.3262C411.157 14.3622 411.39 14.4025 411.614 14.4474C412.01 14.5221 412.469 14.5843 412.99 14.634C413.511 14.6838 414.18 14.7086 414.997 14.7086H426.746V15.0817H426.634C425.741 15.0817 425.023 15.3552 424.477 15.9023C423.932 16.4494 423.659 17.1706 423.659 18.0658V32.8746C423.659 35.5106 424.329 37.5996 425.667 39.1413C427.031 40.6584 428.866 41.4167 431.171 41.4167C433.501 41.4167 435.336 40.6458 436.675 39.1041C438.014 37.5374 438.683 35.4609 438.683 32.8746V18.6253C438.683 17.556 438.361 16.7106 437.717 16.0888C437.072 15.4671 436.216 15.1314 435.151 15.0817V14.7086H447.424L456.498 35.7841L465.572 14.7086H472.526V15.0817C471.733 15.0817 471.063 15.3179 470.517 15.7904C469.972 16.2628 469.724 16.9094 469.774 17.73L471.671 39.8127C471.794 40.6584 472.191 41.2924 472.86 41.7152C473.555 42.1379 474.237 42.3493 474.906 42.3493V42.6849H463.377V42.3493C463.799 42.3493 464.232 42.2499 464.679 42.0508C465.125 41.852 465.485 41.566 465.757 41.1929C466.055 40.8199 466.167 40.3848 466.092 39.8874L464.27 19.2967L453.932 43.2072L443.519 19.2594L441.771 38.8803C441.672 39.8749 441.957 40.6832 442.626 41.3049C443.295 41.9265 444.114 42.2622 445.081 42.3121V42.6849H437.643V42.3121C438.585 42.2622 439.379 41.9142 440.023 41.2676C440.668 40.621 441.039 39.8127 441.139 38.843L442.998 18.215C442.527 17.2451 441.932 16.4867 441.213 15.9396C441.09 15.8385 440.962 15.7465 440.826 15.6632C440.631 15.786 440.449 15.9278 440.283 16.0888C439.637 16.7106 439.316 17.556 439.316 18.6253V32.8746C439.316 34.9636 438.882 36.779 438.014 38.3207C437.171 39.8626 435.944 41.0685 434.332 41.939C432.746 42.7845 430.849 43.2072 428.643 43.2072C426.46 43.2072 424.564 42.7845 422.952 41.939C421.341 41.0934 420.089 39.8997 419.197 38.358C418.329 36.7913 417.895 34.9636 417.895 32.8746V18.0658C417.895 17.1706 417.622 16.4494 417.077 15.9023C416.551 15.375 415.864 15.1019 415.016 15.0828L415.369 22.2437H414.997C414.651 19.9308 413.907 18.1031 412.767 16.7602C411.626 15.4174 410.25 14.746 408.638 14.746C407.498 14.746 406.58 15.0817 405.887 15.7531C405.217 16.4245 404.883 17.3198 404.883 18.4388C404.883 19.4086 405.192 20.3412 405.812 21.2365C406.457 22.1068 407.56 23.1264 409.122 24.2953L410.721 25.4889C412.357 26.6826 413.647 27.7891 414.589 28.8087C415.556 29.8034 416.249 30.7733 416.672 31.7182C417.093 32.6632 417.304 33.6704 417.304 34.7397C417.304 36.3809 416.895 37.8358 416.076 39.1039C415.258 40.3723 414.117 41.367 412.655 42.0882C411.217 42.7845 409.518 43.1575 407.56 43.2072C406.916 43.2072 406.382 43.1824 405.961 43.1327C405.564 43.0828 405.168 43.0207 404.771 42.9462C404.374 42.8715 403.891 42.8093 403.321 42.7596C402.751 42.7099 401.969 42.6849 400.978 42.6849L399.676 32.9864H400.123C400.495 36.0452 401.337 38.4077 402.651 40.0739C403.99 41.7152 405.7 42.5358 407.783 42.5358C409.32 42.5358 410.572 42.1007 411.54 41.2302C412.506 40.3598 412.99 39.2283 412.99 37.8358C412.99 37.2388 412.878 36.667 412.655 36.1199C412.456 35.5729 412.11 34.9884 411.614 34.3666C411.117 33.7451 410.46 33.0736 409.643 32.3523C408.825 31.6064 407.808 30.7733 406.593 29.8532L405.068 28.6969C403.209 27.2794 401.92 26.011 401.201 24.892C400.974 24.5386 400.782 24.1752 400.627 23.8018C400.441 24.7042 400.082 25.5277 399.55 26.2722C398.756 27.3912 397.615 28.2742 396.129 28.9205C394.666 29.5424 392.93 29.8532 390.922 29.8532H387.5V39.3278C387.5 40.2231 387.773 40.9442 388.318 41.4913C388.864 42.0385 389.583 42.3121 390.476 42.3121H390.55V42.6849H368.844V42.3121H368.881C369.774 42.3121 370.493 42.0385 371.038 41.4913C371.584 40.9442 371.856 40.2231 371.856 39.3278V31.665C371.567 33.3743 371.014 34.9338 370.2 36.3437C368.96 38.5072 367.212 40.1982 364.956 41.4167C362.725 42.6104 360.122 43.2072 357.147 43.2072C354.171 43.2072 351.556 42.6104 349.3 41.4167C347.068 40.1982 345.321 38.5072 344.056 36.3437C342.822 34.1643 342.202 31.6275 342.197 28.7327C342.03 28.8388 341.874 28.9635 341.731 29.1071C341.186 29.6542 340.913 30.3754 340.913 31.2708V40.7826C340.417 41.2799 339.624 41.7152 338.533 42.0882C337.467 42.4364 336.252 42.7099 334.889 42.9089C333.55 43.1078 332.211 43.2072 330.872 43.2072C327.636 43.2072 324.818 42.6324 322.417 41.4826C320.214 42.6324 317.652 43.2072 314.732 43.2072ZM360.679 41.6033C359.613 42.2747 358.436 42.6104 357.147 42.6104C355.857 42.6104 354.68 42.2747 353.614 41.6033C352.548 40.9319 351.643 39.9869 350.899 38.7683C350.13 37.5498 349.535 36.0826 349.114 34.3666C348.717 32.6508 348.519 30.7485 348.519 28.6595C348.519 26.5706 348.717 24.6681 349.114 22.9523C349.535 21.2115 350.13 19.732 350.899 18.5135C351.643 17.2948 352.548 16.3499 353.614 15.6784C354.68 15.007 355.857 14.6713 357.147 14.6713C358.436 14.6713 359.613 15.007 360.679 15.6784C361.745 16.3499 362.663 17.2948 363.431 18.5135C364.175 19.732 364.745 21.2115 365.142 22.9523C365.563 24.6681 365.775 26.5706 365.775 28.6595C365.775 30.7485 365.563 32.6508 365.142 34.3666C364.745 36.0826 364.175 37.5498 363.431 38.7683C362.663 39.9869 361.745 40.9319 360.679 41.6033ZM380.955 41.4913C380.607 41.8409 380.187 42.0788 379.697 42.2051C379.207 42.0788 378.787 41.8409 378.438 41.4913C377.894 40.9442 377.62 40.2231 377.62 39.3278V18.0658C377.62 17.1706 377.894 16.4494 378.438 15.9023C378.787 15.5527 379.207 15.3147 379.697 15.1886C380.187 15.3147 380.607 15.5527 380.955 15.9023C381.5 16.4494 381.774 17.1706 381.774 18.0658V39.3278C381.774 40.2231 381.5 40.9442 380.955 41.4913ZM389.694 29.3683H387.5V15.1935H389.657C390.723 15.1935 391.653 15.5044 392.447 16.1262C393.24 16.7229 393.848 17.556 394.269 18.6253C394.715 19.6946 394.938 20.9131 394.938 22.2809C394.938 23.6487 394.715 24.8672 394.269 25.9365C393.848 27.0058 393.24 27.8513 392.447 28.473C391.678 29.0699 390.761 29.3683 389.694 29.3683Z" fill="url(#paint13_linear_2303_1205)" fill-opacity="0.35"/>
<path d="M479.803 11.6529C479.803 13.0844 478.647 14.2449 477.22 14.2449C475.792 14.2449 474.635 13.0844 474.635 11.6529C474.635 10.2213 475.792 9.06084 477.22 9.06084C478.647 9.06084 479.803 10.2213 479.803 11.6529Z" fill="url(#paint14_linear_2303_1205)" fill-opacity="0.35"/>
<path d="M572.12 7.64451C577.643 7.64451 582.12 12.1217 582.12 17.6445V35.1445C582.12 35.6048 582.494 35.9779 582.954 35.9779C583.414 35.9779 583.787 35.6048 583.787 35.1445V17.6445C583.787 12.1217 588.264 7.64451 593.787 7.64451H607.12C613.564 7.64451 618.787 12.8679 618.787 19.3112V23.4909C618.787 26.2978 617.775 29.0113 615.937 31.1325L604.515 44.3112H591.282L608.38 24.583L608.473 24.4658C608.677 24.1831 608.787 23.8419 608.787 23.4909V19.3112C608.787 18.3907 608.041 17.6445 607.12 17.6445H595.454V16.8112C595.454 16.3509 595.081 15.9778 594.62 15.9778C594.16 15.9778 593.787 16.3509 593.787 16.8112V34.3112C593.787 39.834 589.31 44.3112 583.787 44.3112H582.12C576.598 44.3112 572.12 39.834 572.12 34.3112V16.8112C572.12 16.3509 571.747 15.9778 571.287 15.9778C570.827 15.9778 570.454 16.3509 570.454 16.8112V44.3112H560.454V17.6445C560.454 12.1217 564.931 7.64451 570.454 7.64451H572.12Z" fill="url(#paint15_linear_2303_1205)" fill-opacity="0.35"/>
<path fill-rule="evenodd" clip-rule="evenodd" d="M730.24 11.0555C728.437 11.0555 726.651 11.413 724.984 12.1075C723.318 12.802 721.804 13.8199 720.528 15.1032C719.253 16.3864 718.241 17.9098 717.551 19.5865C716.937 21.0776 716.588 22.664 716.519 24.2734C716.503 24.6417 716.299 24.9789 715.972 25.1434L711.545 27.3703C711.218 27.5349 711.009 27.872 711.025 28.2404C711.094 29.8498 711.443 31.4361 712.057 32.9273C712.747 34.6039 713.759 36.1274 715.034 37.4106C716.31 38.6939 717.824 39.7118 719.49 40.4063C721.157 41.1008 722.943 41.4583 724.747 41.4583C726.55 41.4583 728.336 41.1008 730.003 40.4063C731.669 39.7118 733.183 38.6939 734.459 37.4106C735.734 36.1274 736.746 34.6039 737.436 32.9273C738.05 31.4361 738.399 29.8498 738.468 28.2404C738.484 27.872 738.688 27.5349 739.015 27.3703L743.442 25.1434C743.769 24.9789 743.978 24.6417 743.962 24.2734C743.893 22.664 743.544 21.0776 742.93 19.5865C742.24 17.9098 741.228 16.3864 739.953 15.1032C738.677 13.8199 737.163 12.802 735.497 12.1075C733.83 11.413 732.044 11.0555 730.24 11.0555ZM736.585 22.2307C736.854 22.8834 737.021 23.5725 737.082 24.274C737.114 24.6413 736.901 24.9789 736.574 25.1434L732.148 27.3703C731.821 27.5349 731.62 27.8725 731.588 28.2398C731.527 28.9413 731.36 29.6304 731.091 30.283C730.746 31.1214 730.24 31.8831 729.603 32.5247C728.965 33.1663 728.208 33.6753 727.375 34.0225C726.541 34.3698 725.648 34.5485 724.747 34.5485C723.845 34.5485 722.952 34.3698 722.118 34.0225C721.285 33.6753 720.528 33.1663 719.89 32.5247C719.253 31.8831 718.747 31.1214 718.402 30.283C718.133 29.6304 717.966 28.9413 717.905 28.2398C717.873 27.8725 718.086 27.5349 718.413 27.3703L722.839 25.1434C723.166 24.9789 723.367 24.6413 723.399 24.274C723.46 23.5725 723.627 22.8834 723.896 22.2307C724.241 21.3924 724.747 20.6307 725.384 19.989C726.022 19.3474 726.779 18.8384 727.612 18.4912C728.446 18.1439 729.339 17.9652 730.24 17.9652C731.142 17.9652 732.035 18.1439 732.869 18.4912C733.702 18.8384 734.459 19.3474 735.096 19.989C735.734 20.6307 736.24 21.3924 736.585 22.2307Z" fill="url(#paint16_linear_2303_1205)" fill-opacity="0.35"/>
<path fill-rule="evenodd" clip-rule="evenodd" d="M730.24 0C726.994 0 723.779 0.643407 720.779 1.89349C717.78 3.14357 715.055 4.97587 712.759 7.2857C710.463 9.59557 708.642 12.3378 707.4 15.3557C706.233 18.1882 705.598 21.2117 705.525 24.2732C705.516 24.6418 705.311 24.9789 704.984 25.1434L700.557 27.3703C700.23 27.5349 700.022 27.8719 700.031 28.2405C700.104 31.3021 700.739 34.3255 701.906 37.158C703.148 40.176 704.969 42.9182 707.265 45.2281C709.561 47.5379 712.286 49.3704 715.285 50.62C718.285 51.8702 721.5 52.5139 724.747 52.5139C727.993 52.5139 731.208 51.8702 734.208 50.62C737.207 49.3704 739.932 47.5379 742.228 45.2281C744.524 42.9182 746.345 40.176 747.587 37.158C748.754 34.3255 749.388 31.3021 749.462 28.2405C749.471 27.8719 749.676 27.5349 750.003 27.3703L754.429 25.1434C754.757 24.9789 754.965 24.6418 754.956 24.2732C754.883 21.2117 754.248 18.1882 753.081 15.3557C751.839 12.3378 750.018 9.59557 747.722 7.2857C745.426 4.97587 742.701 3.14358 739.702 1.89349C736.702 0.643412 733.487 0 730.24 0ZM742.592 28.2405C742.604 27.872 742.809 27.5349 743.136 27.3703L747.562 25.1434C747.889 24.9789 748.098 24.6418 748.086 24.2733C748.014 22.1193 747.558 19.9941 746.737 18C745.839 15.8203 744.524 13.8398 742.866 12.1716C741.208 10.5034 739.24 9.18008 737.073 8.27723C734.907 7.37439 732.585 6.90969 730.24 6.90969C727.896 6.90969 725.574 7.37439 723.408 8.27723C721.241 9.18008 719.273 10.5034 717.615 12.1716C715.957 13.8398 714.642 15.8203 713.744 18C712.923 19.9941 712.467 22.1193 712.395 24.2733C712.383 24.6418 712.178 24.9789 711.851 25.1434L707.425 27.3703C707.098 27.5349 706.889 27.872 706.901 28.2405C706.973 30.3945 707.429 32.5196 708.25 34.5138C709.148 36.6934 710.463 38.6739 712.121 40.3421C713.779 42.0104 715.747 43.3337 717.914 44.2365C720.08 45.1394 722.402 45.6041 724.747 45.6041C727.091 45.6041 729.413 45.1394 731.579 44.2365C733.746 43.3337 735.714 42.0104 737.372 40.3421C739.03 38.6739 740.345 36.6934 741.243 34.5138C742.064 32.5196 742.52 30.3945 742.592 28.2405Z" fill="url(#paint17_linear_2303_1205)" fill-opacity="0.35"/>
<path d="M828.15 8.18247C827.418 8.18247 826.8 7.92719 826.294 7.41664C825.788 6.90609 825.535 6.28614 825.535 5.55678C825.535 4.80919 825.788 4.18469 826.294 3.68326C826.8 3.17271 827.418 2.91743 828.15 2.91743C828.883 2.91743 829.497 3.17271 829.994 3.68326C830.5 4.18469 830.753 4.80919 830.753 5.55678C830.753 6.28614 830.5 6.90609 829.994 7.41664C829.497 7.92719 828.883 8.18247 828.15 8.18247Z" fill="url(#paint18_linear_2303_1205)" fill-opacity="0.35"/>
<path d="M825.995 24.5794V9.86456H830.279V24.5794H825.995Z" fill="url(#paint19_linear_2303_1205)" fill-opacity="0.35"/>
<path fill-rule="evenodd" clip-rule="evenodd" d="M832.695 28.909V9.86456H836.761V11.3279H836.814C837.07 11.0732 837.346 10.8407 837.642 10.6304C838.6 9.95573 839.702 9.61843 840.949 9.61843C842.043 9.61843 843.086 9.9056 844.08 10.4799C845.083 11.0543 845.896 11.9068 846.52 13.0373C847.144 14.1678 847.446 15.5764 847.428 17.263C847.437 18.5394 847.261 19.6516 846.9 20.5998C846.538 21.5389 846.05 22.3184 845.436 22.9383C844.821 23.5583 844.134 24.0233 843.375 24.3332C842.616 24.6432 841.848 24.7982 841.071 24.7982C839.842 24.7982 838.74 24.4517 837.764 23.7588C837.518 23.5821 837.286 23.3907 837.065 23.1845H836.978V26.4396L832.695 28.909ZM840.068 21.1878C840.701 21.1788 841.256 21.0101 841.735 20.6819C842.214 20.3537 842.589 19.8887 842.86 19.2869C843.132 18.6852 843.263 17.9832 843.253 17.1809C843.263 16.3604 843.127 15.6584 842.847 15.0749C842.576 14.4823 842.192 14.031 841.695 13.7211C841.198 13.4019 840.628 13.247 839.987 13.2561C839.382 13.247 838.84 13.3974 838.36 13.7074C837.881 14.0173 837.502 14.4687 837.222 15.0612C836.942 15.6447 836.802 16.3513 836.802 17.1809C836.802 17.9832 836.942 18.6852 837.222 19.2869C837.511 19.8887 837.9 20.3537 838.387 20.6819C838.876 21.0101 839.436 21.1788 840.068 21.1878Z" fill="url(#paint20_linear_2303_1205)" fill-opacity="0.35"/>
<path d="M854.046 24.7982C853.179 24.7982 852.348 24.6477 851.552 24.3468C850.766 24.046 850.07 23.622 849.465 23.075C848.86 22.5189 848.404 21.8716 848.096 21.1331L851.458 19.6425C851.683 20.071 852.022 20.4767 852.474 20.8596C852.926 21.2425 853.459 21.434 854.074 21.434C854.399 21.434 854.683 21.3793 854.928 21.2699C855.172 21.1514 855.362 21.0009 855.497 20.8186C855.642 20.6363 855.714 20.4403 855.714 20.2305C855.714 19.9662 855.61 19.7382 855.402 19.5468C855.194 19.3553 854.928 19.1912 854.602 19.0545C854.277 18.9177 853.934 18.7992 853.572 18.6989C853.22 18.5986 852.895 18.5075 852.596 18.4254C851.909 18.2157 851.259 17.9285 850.644 17.5638C850.039 17.19 849.547 16.716 849.167 16.1416C848.788 15.5672 848.598 14.8698 848.598 14.0492C848.598 13.1831 848.819 12.4218 849.262 11.7654C849.714 11.0999 850.323 10.5802 851.092 10.2064C851.869 9.83261 852.754 9.64575 853.749 9.64575C854.986 9.64575 856.098 9.93292 857.083 10.5073C858.077 11.0817 858.781 11.8429 859.197 12.7911L855.904 14.227C855.732 13.9353 855.479 13.6526 855.145 13.3791C854.819 13.1056 854.403 12.9689 853.897 12.9689C853.473 12.9689 853.121 13.0783 852.84 13.2971C852.56 13.5159 852.42 13.7894 852.42 14.1176C852.42 14.4458 852.56 14.7102 852.84 14.9108C853.121 15.1114 853.477 15.2846 853.911 15.4304C854.345 15.5763 854.797 15.7177 855.267 15.8544C855.628 15.9547 856.048 16.1006 856.527 16.292C857.006 16.4743 857.471 16.725 857.923 17.0442C858.384 17.3632 858.763 17.7735 859.062 18.2749C859.369 18.7764 859.522 19.3918 859.522 20.1211C859.522 21.042 859.27 21.8579 858.763 22.569C858.267 23.271 857.602 23.8181 856.771 24.2101C855.949 24.6021 855.041 24.7982 854.046 24.7982Z" fill="url(#paint21_linear_2303_1205)" fill-opacity="0.35"/>
<path d="M876.933 24.5794V9.86456H881.013V11.7381H881.088C881.407 11.2904 881.766 10.9121 882.165 10.603C882.979 9.96482 883.941 9.64575 885.052 9.64575C885.974 9.64575 886.756 9.87365 887.398 10.3295C887.892 10.6693 888.296 11.1252 888.608 11.697H888.684C889.146 11.1031 889.707 10.6382 890.366 10.3022C891.224 9.86456 892.159 9.64575 893.172 9.64575C894.138 9.64575 894.933 9.81895 895.557 10.1654C896.181 10.5027 896.668 10.9495 897.021 11.5056C897.373 12.0526 897.622 12.6544 897.766 13.3108C897.911 13.9581 897.983 14.5871 897.983 15.198V24.5794H893.673V15.7313C893.673 14.929 893.506 14.3136 893.172 13.8851C892.846 13.4475 892.367 13.2287 891.735 13.2287C891.319 13.2287 890.948 13.3244 890.623 13.5159C890.307 13.6982 890.054 13.9763 889.864 14.3501C889.683 14.7239 889.593 15.1843 889.593 15.7313V24.5794H885.31V15.7313C885.31 14.929 885.143 14.3136 884.809 13.8851C884.474 13.4475 883.991 13.2287 883.358 13.2287C882.744 13.2287 882.233 13.4429 881.826 13.8715C881.42 14.2908 881.217 14.9199 881.217 15.7586V24.5794H876.933Z" fill="url(#paint22_linear_2303_1205)" fill-opacity="0.35"/>
<path d="M863.714 24.1554C864.537 24.5839 865.449 24.7982 866.452 24.7982C867.636 24.7982 868.684 24.5064 869.597 23.9229C870.059 23.6231 870.479 23.2811 870.857 22.8973H870.966C871.095 23.1964 871.285 23.4608 871.535 23.6905C872.032 24.1463 872.818 24.5155 873.893 24.7982L875.411 21.1878C874.942 21.0146 874.63 20.8095 874.477 20.5725C874.323 20.3354 874.246 19.9525 874.246 19.4237V9.86456H869.963V18.5348C869.963 19.0727 869.859 19.5376 869.651 19.9297C869.453 20.3126 869.172 20.6089 868.811 20.8186C868.458 21.0283 868.047 21.1331 867.577 21.1331C866.945 21.1331 866.407 20.9143 865.964 20.4767C865.531 20.03 865.314 19.3827 865.314 18.5348V9.86456H861.031V19.1092C861.031 20.3491 861.27 21.393 861.749 22.2408C862.237 23.0796 862.892 23.7178 863.714 24.1554Z" fill="url(#paint23_linear_2303_1205)" fill-opacity="0.35"/>
<path fill-rule="evenodd" clip-rule="evenodd" d="M816.72 24.7982C815.32 24.7982 814.041 24.4745 812.884 23.8272C811.737 23.1799 810.82 22.2864 810.133 21.1468C809.455 20.0072 809.117 18.6943 809.117 17.2083C809.117 15.7222 809.455 14.4093 810.133 13.2697C810.82 12.1301 811.737 11.2412 812.884 10.603C814.041 9.96482 815.32 9.64575 816.72 9.64575C818.148 9.64575 819.436 9.96482 820.583 10.603C821.731 11.2412 822.639 12.1301 823.307 13.2697C823.986 14.4093 824.324 15.7222 824.324 17.2083C824.324 18.6943 823.986 20.0072 823.307 21.1468C822.639 22.2864 821.726 23.1799 820.57 23.8272C819.422 24.4745 818.139 24.7982 816.72 24.7982ZM816.72 21.1058C817.389 21.1058 817.99 20.9417 818.523 20.6134C819.056 20.2852 819.476 19.8294 819.784 19.2459C820.091 18.6624 820.244 17.9832 820.244 17.2083C820.244 16.4607 820.095 15.7951 819.797 15.2116C819.499 14.6281 819.088 14.1723 818.564 13.8441C818.039 13.5068 817.434 13.3381 816.747 13.3381C816.07 13.3381 815.46 13.5022 814.918 13.8304C814.385 14.1495 813.964 14.6008 813.657 15.1843C813.35 15.7678 813.196 16.4424 813.196 17.2083C813.196 17.9832 813.35 18.6624 813.657 19.2459C813.974 19.8294 814.398 20.2852 814.931 20.6134C815.464 20.9417 816.061 21.1058 816.72 21.1058Z" fill="url(#paint24_linear_2303_1205)" fill-opacity="0.35"/>
<path fill-rule="evenodd" clip-rule="evenodd" d="M799.774 30.5419C798.563 30.5419 797.452 30.3914 796.44 30.0906C795.437 29.7988 794.646 29.498 794.068 29.188L795.477 25.7965C795.983 26.1064 796.571 26.3709 797.239 26.5897C797.917 26.8176 798.603 26.9315 799.299 26.9315C799.896 26.9315 800.515 26.8313 801.156 26.6307C801.798 26.4301 802.345 26.111 802.796 25.6734C803.248 25.2449 803.474 24.6797 803.474 23.9776V22.5554H803.409C803.144 22.8194 802.858 23.061 802.552 23.2802C801.586 23.964 800.483 24.3059 799.245 24.3059C798.477 24.3059 797.714 24.16 796.955 23.8682C796.196 23.5674 795.504 23.1161 794.88 22.5144C794.266 21.9035 793.774 21.1423 793.403 20.2306C793.033 19.3189 792.848 18.2476 792.848 17.0168C792.848 15.3758 793.164 14.0128 793.796 12.9279C794.438 11.8338 795.26 11.0133 796.263 10.4663C797.266 9.91017 798.31 9.63209 799.394 9.63209C800.65 9.63209 801.748 9.95573 802.688 10.6031C802.989 10.8088 803.27 11.0368 803.529 11.2868H803.61V9.8509H807.5V23.7315C807.5 24.8529 807.31 25.8375 806.931 26.6854C806.551 27.5333 806.013 28.2444 805.318 28.8188C804.631 29.3931 803.817 29.8216 802.878 30.1042C801.938 30.396 800.903 30.5419 799.774 30.5419ZM800.302 20.7913C800.953 20.7913 801.527 20.6272 802.024 20.299C802.521 19.9707 802.914 19.5149 803.203 18.9314C803.492 18.3388 803.637 17.655 803.637 16.8801C803.637 16.096 803.497 15.4259 803.216 14.8698C802.936 14.3046 802.552 13.8715 802.065 13.5706C801.576 13.2697 801.012 13.1193 800.37 13.1193C799.729 13.1193 799.155 13.2743 798.649 13.5843C798.143 13.8852 797.745 14.3182 797.456 14.8835C797.176 15.4487 797.036 16.1142 797.036 16.8801C797.036 17.6459 797.176 18.3251 797.456 18.9177C797.736 19.5012 798.12 19.9616 798.608 20.299C799.096 20.6272 799.661 20.7913 800.302 20.7913Z" fill="url(#paint25_linear_2303_1205)" fill-opacity="0.35"/>
<path fill-rule="evenodd" clip-rule="evenodd" d="M784.156 24.7982C782.755 24.7982 781.476 24.4745 780.32 23.8272C779.172 23.1799 778.255 22.2864 777.568 21.1468C776.891 20.0072 776.552 18.6943 776.552 17.2083C776.552 15.7222 776.891 14.4093 777.568 13.2697C778.255 12.1301 779.172 11.2412 780.32 10.603C781.476 9.96482 782.755 9.64575 784.156 9.64575C785.583 9.64575 786.871 9.96482 788.018 10.603C789.166 11.2412 790.074 12.1301 790.743 13.2697C791.421 14.4093 791.76 15.7222 791.76 17.2083C791.76 18.6943 791.421 20.0072 790.743 21.1468C790.074 22.2864 789.161 23.1799 788.005 23.8272C786.857 24.4745 785.574 24.7982 784.156 24.7982ZM784.156 21.1058C784.824 21.1058 785.425 20.9417 785.958 20.6134C786.492 20.2852 786.911 19.8294 787.219 19.2459C787.526 18.6624 787.68 17.9832 787.68 17.2083C787.68 16.4607 787.531 15.7951 787.232 15.2116C786.934 14.6281 786.523 14.1723 785.999 13.8441C785.475 13.5068 784.869 13.3381 784.183 13.3381C783.505 13.3381 782.895 13.5022 782.353 13.8304C781.82 14.1495 781.4 14.6008 781.092 15.1843C780.785 15.7678 780.631 16.4424 780.631 17.2083C780.631 17.9832 780.785 18.6624 781.092 19.2459C781.409 19.8294 781.833 20.2852 782.366 20.6134C782.899 20.9417 783.496 21.1058 784.156 21.1058Z" fill="url(#paint26_linear_2303_1205)" fill-opacity="0.35"/>
<path d="M764.973 24.5793V4.42173H769.418V20.5861H776.615V24.5793H764.973Z" fill="url(#paint27_linear_2303_1205)" fill-opacity="0.35"/>
<path fill-rule="evenodd" clip-rule="evenodd" d="M832.701 31.8231V35.8662H832.579C832.402 35.711 832.217 35.5651 832.023 35.4286C831.074 34.7539 829.981 34.4166 828.743 34.4166C827.649 34.4166 826.601 34.7038 825.598 35.2781C824.595 35.8525 823.782 36.7049 823.159 37.8354C822.535 38.9659 822.237 40.3745 822.264 42.0611C822.246 43.3375 822.417 44.4498 822.779 45.398C823.14 46.337 823.628 47.1165 824.243 47.7365C824.857 48.3564 825.544 48.8215 826.303 49.1312C827.062 49.4414 827.83 49.5965 828.607 49.5965C829.836 49.5965 830.938 49.2498 831.914 48.5569C832.403 48.2052 832.841 47.7949 833.228 47.3262H833.362C833.464 47.5903 833.618 47.841 833.826 48.0783C834.106 48.379 834.476 48.6571 834.937 48.9124C835.407 49.1589 835.976 49.3865 836.645 49.5965L838.149 45.986C837.734 45.831 837.436 45.6441 837.255 45.4253C837.074 45.2065 836.984 44.8282 836.984 44.2903V29.3537L832.701 31.8231ZM831.291 45.48C830.803 45.8082 830.243 45.9769 829.61 45.986C828.987 45.9769 828.431 45.8082 827.943 45.48C827.455 45.1518 827.076 44.6868 826.804 44.0851C826.543 43.4834 826.416 42.7814 826.425 41.9791C826.416 41.1586 826.551 40.4566 826.832 39.8731C827.112 39.2805 827.496 38.8292 827.984 38.5192C828.481 38.2001 829.05 38.0452 829.692 38.0542C830.297 38.0452 830.839 38.1955 831.318 38.5055C831.797 38.8155 832.176 39.2668 832.456 39.8594C832.737 40.4429 832.881 41.1494 832.89 41.9791C832.881 42.7814 832.737 43.4834 832.456 44.0851C832.176 44.6868 831.788 45.1518 831.291 45.48Z" fill="url(#paint28_linear_2303_1205)" fill-opacity="0.35"/>
<path d="M885.871 49.3777V34.6627H890.019V36.591H890.084C890.199 36.4167 890.326 36.2526 890.466 36.0986C890.972 35.5516 891.577 35.1414 892.283 34.8679C892.987 34.5852 893.742 34.4439 894.546 34.4439C895.522 34.4439 896.362 34.6718 897.067 35.1277C897.772 35.5835 898.314 36.208 898.694 37.0012C899.073 37.7944 899.263 38.7107 899.263 39.75V49.3777H894.979V40.6936C894.979 39.8093 894.772 39.1483 894.356 38.7107C893.94 38.2639 893.376 38.0406 892.662 38.0406C892.192 38.0406 891.767 38.1454 891.388 38.3551C891.008 38.5556 890.706 38.8565 890.48 39.2577C890.263 39.6497 890.154 40.142 890.154 40.7346V49.3777H885.871Z" fill="url(#paint29_linear_2303_1205)" fill-opacity="0.35"/>
<path fill-rule="evenodd" clip-rule="evenodd" d="M877.067 49.5965C875.666 49.5965 874.387 49.2727 873.231 48.6255C872.083 47.9781 871.166 47.0846 870.479 45.945C869.802 44.8054 869.463 43.4925 869.463 42.0064C869.463 40.5204 869.802 39.2075 870.479 38.0679C871.166 36.9283 872.083 36.0394 873.231 35.4012C874.387 34.763 875.666 34.4439 877.067 34.4439C878.494 34.4439 879.782 34.763 880.93 35.4012C882.077 36.0394 882.985 36.9283 883.654 38.0679C884.332 39.2075 884.671 40.5204 884.671 42.0064C884.671 43.4925 884.332 44.8054 883.654 45.945C882.985 47.0846 882.073 47.9781 880.916 48.6255C879.769 49.2727 878.485 49.5965 877.067 49.5965ZM877.067 45.9039C877.735 45.9039 878.336 45.7398 878.869 45.4116C879.402 45.0834 879.823 44.6275 880.13 44.0441C880.437 43.4606 880.591 42.7814 880.591 42.0064C880.591 41.2588 880.442 40.5933 880.144 40.0098C879.845 39.4264 879.434 38.9705 878.91 38.6423C878.386 38.3049 877.781 38.1363 877.094 38.1363C876.416 38.1363 875.806 38.3004 875.264 38.6286C874.731 38.9477 874.311 39.399 874.003 39.9825C873.696 40.5659 873.543 41.2406 873.543 42.0064C873.543 42.7814 873.696 43.4606 874.003 44.0441C874.32 44.6275 874.745 45.0834 875.278 45.4116C875.811 45.7398 876.407 45.9039 877.067 45.9039Z" fill="url(#paint30_linear_2303_1205)" fill-opacity="0.35"/>
<path d="M863.925 49.3777V34.6627H868.208V49.3777H863.925Z" fill="url(#paint31_linear_2303_1205)" fill-opacity="0.35"/>
<path d="M864.223 32.2148C864.729 32.7253 865.348 32.9806 866.081 32.9806C866.812 32.9806 867.427 32.7253 867.924 32.2148C868.43 31.7042 868.683 31.0843 868.683 30.3549C868.683 29.6073 868.43 28.9829 867.924 28.4814C867.427 27.9709 866.812 27.7156 866.081 27.7156C865.348 27.7156 864.729 27.9709 864.223 28.4814C863.717 28.9829 863.464 29.6073 863.464 30.3549C863.464 31.0843 863.717 31.7042 864.223 32.2148Z" fill="url(#paint32_linear_2303_1205)" fill-opacity="0.35"/>
<path d="M856.056 48.092C856.933 49.0947 858.27 49.5965 860.068 49.5965C860.619 49.5965 861.162 49.5459 861.695 49.4458C862.237 49.3456 862.711 49.1954 863.118 48.9946L861.736 45.5894C861.582 45.6715 861.405 45.7398 861.207 45.7945C861.008 45.8492 860.805 45.8766 860.597 45.8766C860.154 45.8766 859.779 45.7398 859.472 45.4663C859.174 45.1837 859.025 44.7279 859.025 44.0988V38.2457H862.4V34.6627H859.025V30.4233H854.741V34.6627H852.302V38.2457H854.741V44.2082C854.741 45.7854 855.18 47.08 856.056 48.092Z" fill="url(#paint33_linear_2303_1205)" fill-opacity="0.35"/>
<path fill-rule="evenodd" clip-rule="evenodd" d="M841.098 48.9946C841.848 49.3957 842.716 49.5965 843.701 49.5965C844.839 49.5965 845.842 49.3685 846.71 48.9124C847.411 48.5477 847.924 48.142 848.25 47.6954H848.316C848.442 47.9142 848.612 48.133 848.824 48.3518C849.249 48.7894 849.881 49.1497 850.722 49.4322L851.223 49.5965L852.728 45.986L852.402 45.8766C852.086 45.7763 851.865 45.5985 851.738 45.3432C851.621 45.0789 851.562 44.696 851.562 44.1945V39.7637C851.562 39.2349 851.499 38.6651 851.372 38.0542C851.255 37.4343 851.002 36.8554 850.613 36.3174C850.225 35.7704 849.628 35.3237 848.824 34.9773C848.02 34.6217 846.935 34.4439 845.571 34.4439C844.694 34.4439 843.872 34.5168 843.104 34.6627C842.345 34.7994 841.667 34.9727 841.071 35.1824C840.484 35.3921 840.009 35.6017 839.648 35.8115L841.071 39.0662C841.405 38.8474 841.803 38.656 842.264 38.4918C842.725 38.3186 843.204 38.1864 843.701 38.0953C844.198 37.995 844.663 37.9448 845.097 37.9448C845.476 37.9448 845.815 37.9904 846.113 38.0816C846.412 38.1636 846.665 38.2867 846.872 38.4508C847.08 38.6149 847.234 38.8155 847.333 39.0525C847.441 39.2805 847.496 39.5358 847.496 39.8184V40.5569H844.744C843.479 40.5569 842.395 40.7529 841.491 41.1449C840.597 41.5369 839.91 42.0748 839.431 42.7586C838.961 43.4423 838.726 44.2264 838.726 45.1108C838.726 45.9495 838.934 46.7062 839.35 47.3809C839.774 48.0555 840.357 48.5934 841.098 48.9946ZM845.259 43.2646H847.699V44.1808C847.699 44.7187 847.527 45.1472 847.184 45.4663C846.85 45.7854 846.452 46.0133 845.991 46.1501C845.531 46.2868 845.128 46.3553 844.785 46.3553C844.414 46.3553 844.08 46.296 843.782 46.1774C843.493 46.0498 843.267 45.8766 843.104 45.6578C842.942 45.4298 842.86 45.1563 842.86 44.8373C842.86 44.2993 843.064 43.9028 843.47 43.6475C843.886 43.3922 844.482 43.2646 845.259 43.2646Z" fill="url(#paint34_linear_2303_1205)" fill-opacity="0.35"/>
<path d="M807.889 49.3777V34.6627H812.036V36.591H812.102C812.216 36.4167 812.344 36.2526 812.484 36.0986C812.99 35.5516 813.595 35.1414 814.3 34.8679C815.005 34.5852 815.759 34.4439 816.563 34.4439C817.539 34.4439 818.38 34.6718 819.084 35.1277C819.789 35.5835 820.332 36.208 820.711 37.0012C821.091 37.7944 821.281 38.7107 821.281 39.75V49.3777H816.997V40.6936C816.997 39.8093 816.789 39.1483 816.374 38.7107C815.958 38.2639 815.393 38.0406 814.68 38.0406C814.21 38.0406 813.785 38.1454 813.405 38.3551C813.026 38.5556 812.723 38.8565 812.497 39.2577C812.281 39.6497 812.172 40.142 812.172 40.7346V49.3777H807.889Z" fill="url(#paint35_linear_2303_1205)" fill-opacity="0.35"/>
<path d="M797.811 49.5965C796.807 49.5965 795.895 49.3821 795.072 48.9537C794.25 48.5161 793.595 47.8778 793.107 47.039C792.628 46.1912 792.389 45.1473 792.389 43.9073V34.6627H796.672V43.333C796.672 44.1809 796.889 44.8281 797.322 45.2749C797.765 45.7125 798.303 45.9313 798.935 45.9313C799.405 45.9313 799.816 45.8265 800.169 45.6168C800.53 45.4071 800.811 45.1108 801.009 44.7279C801.217 44.3358 801.321 43.8709 801.321 43.333V34.6627H805.604V44.2219C805.604 44.7507 805.681 45.1336 805.835 45.3706C805.988 45.6077 806.3 45.8128 806.77 45.986L805.252 49.5965C804.176 49.3135 803.39 48.9445 802.893 48.4884C802.643 48.2589 802.453 47.9946 802.324 47.6954H802.215C801.837 48.0794 801.417 48.4213 800.955 48.7213C800.042 49.3048 798.994 49.5965 797.811 49.5965Z" fill="url(#paint36_linear_2303_1205)" fill-opacity="0.35"/>
<path fill-rule="evenodd" clip-rule="evenodd" d="M783.68 49.5965C782.279 49.5965 781 49.2727 779.843 48.6255C778.696 47.9781 777.779 47.0846 777.092 45.945C776.414 44.8054 776.075 43.4925 776.075 42.0064C776.075 40.5204 776.414 39.2075 777.092 38.0679C777.779 36.9283 778.696 36.0394 779.843 35.4012C781 34.763 782.279 34.4439 783.68 34.4439C785.107 34.4439 786.395 34.763 787.542 35.4012C788.69 36.0394 789.598 36.9283 790.266 38.0679C790.945 39.2075 791.283 40.5204 791.283 42.0064C791.283 43.4925 790.945 44.8054 790.266 45.945C789.598 47.0846 788.685 47.9781 787.529 48.6255C786.381 49.2727 785.098 49.5965 783.68 49.5965ZM783.68 45.9039C784.348 45.9039 784.949 45.7398 785.482 45.4116C786.015 45.0834 786.435 44.6275 786.743 44.0441C787.05 43.4606 787.203 42.7814 787.203 42.0064C787.203 41.2588 787.055 40.5933 786.756 40.0098C786.458 39.4264 786.047 38.9705 785.523 38.6423C784.999 38.3049 784.393 38.1363 783.706 38.1363C783.029 38.1363 782.419 38.3004 781.877 38.6286C781.344 38.9477 780.923 39.399 780.616 39.9825C780.309 40.5659 780.155 41.2406 780.155 42.0064C780.155 42.7814 780.309 43.4606 780.616 44.0441C780.933 44.6275 781.357 45.0834 781.89 45.4116C782.423 45.7398 783.02 45.9039 783.68 45.9039Z" fill="url(#paint37_linear_2303_1205)" fill-opacity="0.35"/>
<path d="M764.94 49.3777V29.2199H776.583V33.2132H769.386V37.8491H775.376V41.8423H769.386V49.3777H764.94Z" fill="url(#paint38_linear_2303_1205)" fill-opacity="0.35"/>
<path d="M754.956 24.3119H748.086C748.083 24.6652 747.878 24.9846 747.562 25.1434L743.136 27.3703C742.82 27.5291 742.619 27.8485 742.594 28.2018H749.464C749.486 27.8485 749.687 27.5291 750.003 27.3703L754.429 25.1434C754.745 24.9847 754.95 24.6653 754.956 24.3119Z" fill="url(#paint39_linear_2303_1205)" fill-opacity="0.35"/>
<path d="M700.031 28.2018H706.901C706.904 27.8485 707.109 27.5291 707.425 27.3703L711.851 25.1434C712.167 24.9846 712.368 24.6652 712.393 24.3119H705.523C705.501 24.6653 705.299 24.9847 704.984 25.1434L700.557 27.3703C700.242 27.5291 700.037 27.8485 700.031 28.2018Z" fill="url(#paint40_linear_2303_1205)" fill-opacity="0.35"/>
<path d="M716.516 24.3119C716.488 24.6651 716.287 24.9846 715.972 25.1434L711.545 27.3703C711.23 27.5291 711.023 27.8486 711.024 28.2018H717.903C717.888 27.8494 718.097 27.5292 718.413 27.3703L722.839 25.1434C723.155 24.9846 723.353 24.6644 723.395 24.3119H716.516Z" fill="url(#paint41_linear_2303_1205)" fill-opacity="0.35"/>
<path d="M737.084 24.3119C737.099 24.6644 736.89 24.9846 736.574 25.1434L732.148 27.3703C731.832 27.5292 731.634 27.8494 731.592 28.2018H738.471C738.499 27.8486 738.7 27.5291 739.015 27.3703L743.442 25.1434C743.757 24.9846 743.964 24.6651 743.963 24.3119H737.084Z" fill="url(#paint42_linear_2303_1205)" fill-opacity="0.35"/>
<path d="M1012.42 36.9158L1012.42 36.9186L1007.03 41.6264C1005.93 42.6156 1004.5 43.1759 1003.01 43.2035L1002.99 43.2038H984.517C983.833 43.2324 983.151 43.105 982.525 42.8313C981.887 42.5529 981.324 42.1308 980.881 41.5981C980.437 41.0657 980.126 40.438 979.971 39.7654C979.819 39.1042 979.822 38.4166 979.981 37.7568L981.404 30.5488C981.53 29.9214 981.865 29.3534 982.354 28.9354L982.424 28.8758C982.273 28.6483 982.162 28.3963 982.097 28.1308C982.011 27.7786 982.008 27.4122 982.087 27.0597L983.513 19.8383L983.515 19.828C983.792 18.5322 984.491 17.3623 985.504 16.4974L990.44 12.1871C990.669 11.9275 990.92 11.6856 991.191 11.4645C992.271 10.5837 993.616 10.0821 995.015 10.0377L995.038 10.037L1013.54 10.0897C1014.22 10.0614 1014.9 10.1889 1015.53 10.4622C1016.16 10.7406 1016.73 11.1628 1017.17 11.6953C1017.62 12.2278 1017.93 12.8555 1018.08 13.5284C1018.23 14.1898 1018.23 14.8768 1018.07 15.5363L1014.54 33.4862L1014.53 33.508C1014.22 34.8419 1013.48 36.0383 1012.42 36.9158Z" fill="url(#paint43_linear_2303_1205)" fill-opacity="0.35"/>
<path d="M1013.25 11.7483C1013.73 11.7239 1014.22 11.813 1014.67 12.0084C1015.11 12.2038 1015.5 12.5001 1015.81 12.8737C1016.12 13.2472 1016.34 13.6877 1016.45 14.1598C1016.56 14.632 1016.55 15.1228 1016.44 15.5929L1012.92 33.5543C1012.67 34.6215 1012.07 35.5774 1011.22 36.2728C1010.37 36.9682 1009.32 37.3642 1008.22 37.399H989.808C989.322 37.4231 988.837 37.3339 988.392 37.1386C987.946 36.9431 987.553 36.647 987.243 36.2736C986.933 35.9002 986.714 35.46 986.605 34.9879C986.497 34.5158 986.5 34.0249 986.615 33.5543L988.036 26.2878C988.119 25.9332 988.318 25.6159 988.601 25.3853C988.885 25.1547 989.237 25.0238 989.602 25.0129C992.962 25.1318 996.188 25.3829 999.195 26.4596L999.859 30.6147C999.875 30.7151 999.928 30.8058 1000.01 30.8692C1000.09 30.9327 1000.19 30.9645 1000.29 30.9583C1000.41 30.9562 1000.52 30.9234 1000.62 30.8631C1000.72 30.8028 1000.81 30.717 1000.86 30.6147L1003.13 26.4596L1007.67 25.0327C1007.78 24.9977 1007.88 24.935 1007.96 24.8504C1008.04 24.7658 1008.09 24.6625 1008.12 24.5506C1008.14 24.4516 1008.13 24.3465 1008.08 24.256C1008.04 24.1656 1007.96 24.0963 1007.86 24.0618L1003.88 22.6414L1003.21 18.4864C1003.2 18.3855 1003.14 18.294 1003.06 18.2295C1002.98 18.1649 1002.88 18.1317 1002.78 18.1363C1002.66 18.139 1002.55 18.1728 1002.45 18.2343C1002.35 18.2958 1002.26 18.3828 1002.21 18.4864L999.939 22.6414C996.646 23.5811 993.24 24.0658 989.815 24.0816C989.65 24.0955 989.485 24.0703 989.332 24.0082C989.18 23.9462 989.044 23.849 988.936 23.7245C988.829 23.6 988.752 23.4518 988.714 23.2923C988.675 23.1327 988.674 22.9662 988.713 22.8065L990.134 15.54C990.379 14.4734 990.973 13.5177 991.822 12.8222C992.671 12.1267 993.728 11.7306 994.827 11.6955L1013.25 11.7483Z" fill="url(#paint44_linear_2303_1205)" fill-opacity="0.35"/>
<path d="M1126.49 35.7467C1123.08 35.7467 1120.65 34.3616 1119.89 31.7482L1124.35 29.736C1124.67 30.8074 1125.59 31.304 1127.28 31.304C1128.58 31.304 1129.64 30.912 1129.79 30.0757C1129.97 29.0304 1128.93 28.8736 1127.35 28.6384C1124.72 28.2464 1120.96 27.2271 1121.7 23.0197C1122.28 19.7792 1125.68 17.2965 1129.68 17.2965C1132.82 17.2965 1135.25 18.6815 1136.01 21.2949L1131.55 23.3072C1131.19 22.4448 1130.36 21.7391 1128.68 21.7391C1127.5 21.7391 1126.8 22.105 1126.67 22.8368C1126.49 23.8298 1127.61 24.1434 1129.32 24.4047C1131.92 24.7968 1135.48 25.7899 1134.73 30.0234C1134.16 33.264 1130.49 35.7467 1126.49 35.7467Z" fill="url(#paint45_linear_2303_1205)" fill-opacity="0.35"/>
<path d="M1153.61 35.3285H1158.62L1162.56 22.8629L1163.56 33.1856C1163.7 34.6752 1164.9 35.407 1166.37 35.407C1167.86 35.407 1169.25 34.6491 1169.98 33.081L1174.64 22.889L1173.88 35.3285H1178.86L1179.34 20.5893C1179.4 18.4464 1178.16 17.2965 1176.06 17.2965C1174.14 17.2965 1172.36 18.1589 1171.5 20.1189L1167.43 29.3963L1166.64 20.0405C1166.48 18.0805 1165.04 17.2965 1163.18 17.2965C1161.02 17.2965 1159.32 18.4202 1158.61 20.5109L1153.61 35.3285Z" fill="url(#paint46_linear_2303_1205)" fill-opacity="0.35"/>
<path d="M1136.88 27.3578C1135.96 32.5846 1137.95 35.6422 1143.6 35.6422C1149.23 35.6422 1152.36 32.5846 1153.28 27.3578L1155 17.6885H1150.06L1148.37 27.2271C1147.89 29.9451 1146.63 31.0688 1144.41 31.0688C1142.23 31.0688 1141.36 29.9451 1141.84 27.2271L1143.53 17.6885H1138.6L1136.88 27.3578Z" fill="url(#paint47_linear_2303_1205)" fill-opacity="0.35"/>
<path fill-rule="evenodd" clip-rule="evenodd" d="M1103.32 35.3285L1108.26 35.3024L1109.02 31.0166H1111.26C1116.48 31.0166 1119.89 28.5077 1120.64 24.2741C1121.36 20.1712 1118.68 17.6885 1113.35 17.6885H1106.44L1103.32 35.3285ZM1110.59 22.1311H1112.7C1114.83 22.1311 1115.82 22.889 1115.57 24.2741C1115.31 25.7637 1114.12 26.5739 1111.91 26.5739H1109.8L1110.59 22.1311Z" fill="url(#paint48_linear_2303_1205)" fill-opacity="0.35"/>
<path d="M1098.32 17.6885H1103.25L1100.12 35.3285H1095.19L1098.32 17.6885Z" fill="url(#paint49_linear_2303_1205)" fill-opacity="0.35"/>
<path fill-rule="evenodd" clip-rule="evenodd" d="M1075.89 26.5215C1074.96 31.7744 1078.31 35.7205 1083.75 35.7205C1089.19 35.7205 1093.94 31.7744 1094.87 26.5215C1095.8 21.2688 1092.45 17.3226 1087.01 17.3226C1081.57 17.3226 1076.82 21.2688 1075.89 26.5215ZM1089.81 26.5215C1089.34 29.1349 1087.07 31.1472 1084.56 31.1472C1082.05 31.1472 1080.49 29.1349 1080.95 26.5215C1081.42 23.9083 1083.69 21.896 1086.2 21.896C1088.71 21.896 1090.27 23.9083 1089.81 26.5215Z" fill="url(#paint50_linear_2303_1205)" fill-opacity="0.35"/>
<path d="M1065.57 35.7205C1060.19 35.7205 1056.8 31.6699 1057.71 26.5215C1058.62 21.3733 1063.39 17.3226 1068.83 17.3226C1072.03 17.3226 1074.89 18.9428 1075.68 21.896L1071.26 24.0912C1070.75 22.7583 1069.89 21.8698 1067.81 21.8698C1065.28 21.8698 1063.25 23.8298 1062.76 26.6C1062.25 29.5008 1063.63 31.3562 1066.35 31.3562C1067.79 31.3562 1068.72 31.2256 1069.61 30.5461L1070.02 28.1155L1065.41 26.0858H1075.15L1075.02 26.9135H1075.03L1074.87 27.7724L1074.86 27.829L1074.1 32.1402C1072.34 34.2309 1069.2 35.7205 1065.57 35.7205Z" fill="url(#paint51_linear_2303_1205)" fill-opacity="0.35"/>
<path fill-rule="evenodd" clip-rule="evenodd" d="M1038.18 26.5215C1037.25 31.7744 1040.6 35.7205 1046.04 35.7205C1051.48 35.7205 1056.23 31.7744 1057.16 26.5215C1058.09 21.2688 1054.74 17.3226 1049.3 17.3226C1043.86 17.3226 1039.11 21.2688 1038.18 26.5215ZM1052.1 26.5215C1051.63 29.1349 1049.36 31.1472 1046.85 31.1472C1044.34 31.1472 1042.78 29.1349 1043.24 26.5215C1043.71 23.9083 1045.98 21.896 1048.49 21.896C1051 21.896 1052.56 23.9083 1052.1 26.5215Z" fill="url(#paint52_linear_2303_1205)" fill-opacity="0.35"/>
<path d="M1031.79 17.6885L1029.45 30.8859H1037.4L1036.61 35.3285H1028C1024.96 35.3285 1024.01 33.7605 1024.45 31.2779L1026.85 17.6885H1031.79Z" fill="url(#paint53_linear_2303_1205)" fill-opacity="0.35"/>
<path d="M1280 6.24638C1291.05 6.24638 1300 15.2004 1300 26.2464V40.2464C1300 41.8377 1299.37 43.3638 1298.24 44.489C1297.12 45.6142 1295.59 46.2464 1294 46.2464H1281V37.4724C1281 35.4704 1281.12 33.3964 1282.17 31.6924C1282.92 30.4712 1283.93 29.426 1285.12 28.6277C1286.31 27.8293 1287.66 27.2965 1289.08 27.0654L1289.46 27.0034C1289.62 26.9494 1289.75 26.8474 1289.85 26.7117C1289.95 26.5759 1290 26.4132 1290 26.2464C1290 26.0795 1289.95 25.9168 1289.85 25.7811C1289.75 25.6453 1289.62 25.5433 1289.46 25.4894L1289.08 25.4274C1287.01 25.0896 1285.1 24.1108 1283.62 22.6293C1282.14 21.1477 1281.16 19.2382 1280.82 17.1704L1280.76 16.7874C1280.7 16.6295 1280.6 16.4924 1280.47 16.3954C1280.33 16.2983 1280.17 16.2461 1280 16.2461C1279.83 16.2461 1279.67 16.2983 1279.53 16.3954C1279.4 16.4924 1279.3 16.6295 1279.24 16.7874L1279.18 17.1704C1278.95 18.5856 1278.42 19.9347 1277.62 21.1259C1276.82 22.3171 1275.78 23.3227 1274.55 24.0744C1272.85 25.1244 1270.78 25.2464 1268.77 25.2464H1260.02C1260.55 14.6654 1269.29 6.24638 1280 6.24638Z" fill="url(#paint54_linear_2303_1205)" fill-opacity="0.35"/>
<path d="M1260 27.2464H1268.77C1270.78 27.2464 1272.85 27.3684 1274.55 28.4184C1275.89 29.2391 1277.01 30.3604 1277.83 31.6924C1278.88 33.3964 1279 35.4704 1279 37.4724V46.2464H1266C1264.41 46.2464 1262.88 45.6142 1261.76 44.489C1260.63 43.3638 1260 41.8377 1260 40.2464V27.2464ZM1300 8.24638C1300 8.77681 1299.79 9.28552 1299.41 9.66059C1299.04 10.0357 1298.53 10.2464 1298 10.2464C1297.47 10.2464 1296.96 10.0357 1296.59 9.66059C1296.21 9.28552 1296 8.77681 1296 8.24638C1296 7.71594 1296.21 7.20723 1296.59 6.83216C1296.96 6.45709 1297.47 6.24638 1298 6.24638C1298.53 6.24638 1299.04 6.45709 1299.41 6.83216C1299.79 7.20723 1300 7.71594 1300 8.24638Z" fill="url(#paint55_linear_2303_1205)" fill-opacity="0.35"/>
<defs>
<linearGradient id="paint0_linear_2303_1205" x1="0" y1="26.257" x2="1300" y2="26.257" gradientUnits="userSpaceOnUse">
<stop stop-color="#5D5D5D"/>
<stop offset="0.462901" stop-color="white"/>
<stop offset="1" stop-color="#5D5D5D"/>
</linearGradient>
<linearGradient id="paint1_linear_2303_1205" x1="0" y1="26.257" x2="1300" y2="26.257" gradientUnits="userSpaceOnUse">
<stop stop-color="#5D5D5D"/>
<stop offset="0.462901" stop-color="white"/>
<stop offset="1" stop-color="#5D5D5D"/>
</linearGradient>
<linearGradient id="paint2_linear_2303_1205" x1="0" y1="26.257" x2="1300" y2="26.257" gradientUnits="userSpaceOnUse">
<stop stop-color="#5D5D5D"/>
<stop offset="0.462901" stop-color="white"/>
<stop offset="1" stop-color="#5D5D5D"/>
</linearGradient>
<linearGradient id="paint3_linear_2303_1205" x1="0" y1="26.257" x2="1300" y2="26.257" gradientUnits="userSpaceOnUse">
<stop stop-color="#5D5D5D"/>
<stop offset="0.462901" stop-color="white"/>
<stop offset="1" stop-color="#5D5D5D"/>
</linearGradient>
<linearGradient id="paint4_linear_2303_1205" x1="0" y1="26.257" x2="1300" y2="26.257" gradientUnits="userSpaceOnUse">
<stop stop-color="#5D5D5D"/>
<stop offset="0.462901" stop-color="white"/>
<stop offset="1" stop-color="#5D5D5D"/>
</linearGradient>
<linearGradient id="paint5_linear_2303_1205" x1="0" y1="26.257" x2="1300" y2="26.257" gradientUnits="userSpaceOnUse">
<stop stop-color="#5D5D5D"/>
<stop offset="0.462901" stop-color="white"/>
<stop offset="1" stop-color="#5D5D5D"/>
</linearGradient>
<linearGradient id="paint6_linear_2303_1205" x1="0" y1="26.257" x2="1300" y2="26.257" gradientUnits="userSpaceOnUse">
<stop stop-color="#5D5D5D"/>
<stop offset="0.462901" stop-color="white"/>
<stop offset="1" stop-color="#5D5D5D"/>
</linearGradient>
<linearGradient id="paint7_linear_2303_1205" x1="0" y1="26.257" x2="1300" y2="26.257" gradientUnits="userSpaceOnUse">
<stop stop-color="#5D5D5D"/>
<stop offset="0.462901" stop-color="white"/>
<stop offset="1" stop-color="#5D5D5D"/>
</linearGradient>
<linearGradient id="paint8_linear_2303_1205" x1="0" y1="26.257" x2="1300" y2="26.257" gradientUnits="userSpaceOnUse">
<stop stop-color="#5D5D5D"/>
<stop offset="0.462901" stop-color="white"/>
<stop offset="1" stop-color="#5D5D5D"/>
</linearGradient>
<linearGradient id="paint9_linear_2303_1205" x1="0" y1="26.257" x2="1300" y2="26.257" gradientUnits="userSpaceOnUse">
<stop stop-color="#5D5D5D"/>
<stop offset="0.462901" stop-color="white"/>
<stop offset="1" stop-color="#5D5D5D"/>
</linearGradient>
<linearGradient id="paint10_linear_2303_1205" x1="0" y1="26.257" x2="1300" y2="26.257" gradientUnits="userSpaceOnUse">
<stop stop-color="#5D5D5D"/>
<stop offset="0.462901" stop-color="white"/>
<stop offset="1" stop-color="#5D5D5D"/>
</linearGradient>
<linearGradient id="paint11_linear_2303_1205" x1="0" y1="26.257" x2="1300" y2="26.257" gradientUnits="userSpaceOnUse">
<stop stop-color="#5D5D5D"/>
<stop offset="0.462901" stop-color="white"/>
<stop offset="1" stop-color="#5D5D5D"/>
</linearGradient>
<linearGradient id="paint12_linear_2303_1205" x1="0" y1="26.257" x2="1300" y2="26.257" gradientUnits="userSpaceOnUse">
<stop stop-color="#5D5D5D"/>
<stop offset="0.462901" stop-color="white"/>
<stop offset="1" stop-color="#5D5D5D"/>
</linearGradient>
<linearGradient id="paint13_linear_2303_1205" x1="0" y1="26.257" x2="1300" y2="26.257" gradientUnits="userSpaceOnUse">
<stop stop-color="#5D5D5D"/>
<stop offset="0.462901" stop-color="white"/>
<stop offset="1" stop-color="#5D5D5D"/>
</linearGradient>
<linearGradient id="paint14_linear_2303_1205" x1="0" y1="26.257" x2="1300" y2="26.257" gradientUnits="userSpaceOnUse">
<stop stop-color="#5D5D5D"/>
<stop offset="0.462901" stop-color="white"/>
<stop offset="1" stop-color="#5D5D5D"/>
</linearGradient>
<linearGradient id="paint15_linear_2303_1205" x1="0" y1="26.257" x2="1300" y2="26.257" gradientUnits="userSpaceOnUse">
<stop stop-color="#5D5D5D"/>
<stop offset="0.462901" stop-color="white"/>
<stop offset="1" stop-color="#5D5D5D"/>
</linearGradient>
<linearGradient id="paint16_linear_2303_1205" x1="0" y1="26.257" x2="1300" y2="26.257" gradientUnits="userSpaceOnUse">
<stop stop-color="#5D5D5D"/>
<stop offset="0.462901" stop-color="white"/>
<stop offset="1" stop-color="#5D5D5D"/>
</linearGradient>
<linearGradient id="paint17_linear_2303_1205" x1="0" y1="26.257" x2="1300" y2="26.257" gradientUnits="userSpaceOnUse">
<stop stop-color="#5D5D5D"/>
<stop offset="0.462901" stop-color="white"/>
<stop offset="1" stop-color="#5D5D5D"/>
</linearGradient>
<linearGradient id="paint18_linear_2303_1205" x1="0" y1="26.257" x2="1300" y2="26.257" gradientUnits="userSpaceOnUse">
<stop stop-color="#5D5D5D"/>
<stop offset="0.462901" stop-color="white"/>
<stop offset="1" stop-color="#5D5D5D"/>
</linearGradient>
<linearGradient id="paint19_linear_2303_1205" x1="0" y1="26.257" x2="1300" y2="26.257" gradientUnits="userSpaceOnUse">
<stop stop-color="#5D5D5D"/>
<stop offset="0.462901" stop-color="white"/>
<stop offset="1" stop-color="#5D5D5D"/>
</linearGradient>
<linearGradient id="paint20_linear_2303_1205" x1="0" y1="26.257" x2="1300" y2="26.257" gradientUnits="userSpaceOnUse">
<stop stop-color="#5D5D5D"/>
<stop offset="0.462901" stop-color="white"/>
<stop offset="1" stop-color="#5D5D5D"/>
</linearGradient>
<linearGradient id="paint21_linear_2303_1205" x1="0" y1="26.257" x2="1300" y2="26.257" gradientUnits="userSpaceOnUse">
<stop stop-color="#5D5D5D"/>
<stop offset="0.462901" stop-color="white"/>
<stop offset="1" stop-color="#5D5D5D"/>
</linearGradient>
<linearGradient id="paint22_linear_2303_1205" x1="0" y1="26.257" x2="1300" y2="26.257" gradientUnits="userSpaceOnUse">
<stop stop-color="#5D5D5D"/>
<stop offset="0.462901" stop-color="white"/>
<stop offset="1" stop-color="#5D5D5D"/>
</linearGradient>
<linearGradient id="paint23_linear_2303_1205" x1="0" y1="26.257" x2="1300" y2="26.257" gradientUnits="userSpaceOnUse">
<stop stop-color="#5D5D5D"/>
<stop offset="0.462901" stop-color="white"/>
<stop offset="1" stop-color="#5D5D5D"/>
</linearGradient>
<linearGradient id="paint24_linear_2303_1205" x1="0" y1="26.257" x2="1300" y2="26.257" gradientUnits="userSpaceOnUse">
<stop stop-color="#5D5D5D"/>
<stop offset="0.462901" stop-color="white"/>
<stop offset="1" stop-color="#5D5D5D"/>
</linearGradient>
<linearGradient id="paint25_linear_2303_1205" x1="0" y1="26.257" x2="1300" y2="26.257" gradientUnits="userSpaceOnUse">
<stop stop-color="#5D5D5D"/>
<stop offset="0.462901" stop-color="white"/>
<stop offset="1" stop-color="#5D5D5D"/>
</linearGradient>
<linearGradient id="paint26_linear_2303_1205" x1="0" y1="26.257" x2="1300" y2="26.257" gradientUnits="userSpaceOnUse">
<stop stop-color="#5D5D5D"/>
<stop offset="0.462901" stop-color="white"/>
<stop offset="1" stop-color="#5D5D5D"/>
</linearGradient>
<linearGradient id="paint27_linear_2303_1205" x1="0" y1="26.257" x2="1300" y2="26.257" gradientUnits="userSpaceOnUse">
<stop stop-color="#5D5D5D"/>
<stop offset="0.462901" stop-color="white"/>
<stop offset="1" stop-color="#5D5D5D"/>
</linearGradient>
<linearGradient id="paint28_linear_2303_1205" x1="0" y1="26.257" x2="1300" y2="26.257" gradientUnits="userSpaceOnUse">
<stop stop-color="#5D5D5D"/>
<stop offset="0.462901" stop-color="white"/>
<stop offset="1" stop-color="#5D5D5D"/>
</linearGradient>
<linearGradient id="paint29_linear_2303_1205" x1="0" y1="26.257" x2="1300" y2="26.257" gradientUnits="userSpaceOnUse">
<stop stop-color="#5D5D5D"/>
<stop offset="0.462901" stop-color="white"/>
<stop offset="1" stop-color="#5D5D5D"/>
</linearGradient>
<linearGradient id="paint30_linear_2303_1205" x1="0" y1="26.257" x2="1300" y2="26.257" gradientUnits="userSpaceOnUse">
<stop stop-color="#5D5D5D"/>
<stop offset="0.462901" stop-color="white"/>
<stop offset="1" stop-color="#5D5D5D"/>
</linearGradient>
<linearGradient id="paint31_linear_2303_1205" x1="0" y1="26.257" x2="1300" y2="26.257" gradientUnits="userSpaceOnUse">
<stop stop-color="#5D5D5D"/>
<stop offset="0.462901" stop-color="white"/>
<stop offset="1" stop-color="#5D5D5D"/>
</linearGradient>
<linearGradient id="paint32_linear_2303_1205" x1="0" y1="26.257" x2="1300" y2="26.257" gradientUnits="userSpaceOnUse">
<stop stop-color="#5D5D5D"/>
<stop offset="0.462901" stop-color="white"/>
<stop offset="1" stop-color="#5D5D5D"/>
</linearGradient>
<linearGradient id="paint33_linear_2303_1205" x1="0" y1="26.257" x2="1300" y2="26.257" gradientUnits="userSpaceOnUse">
<stop stop-color="#5D5D5D"/>
<stop offset="0.462901" stop-color="white"/>
<stop offset="1" stop-color="#5D5D5D"/>
</linearGradient>
<linearGradient id="paint34_linear_2303_1205" x1="0" y1="26.257" x2="1300" y2="26.257" gradientUnits="userSpaceOnUse">
<stop stop-color="#5D5D5D"/>
<stop offset="0.462901" stop-color="white"/>
<stop offset="1" stop-color="#5D5D5D"/>
</linearGradient>
<linearGradient id="paint35_linear_2303_1205" x1="0" y1="26.257" x2="1300" y2="26.257" gradientUnits="userSpaceOnUse">
<stop stop-color="#5D5D5D"/>
<stop offset="0.462901" stop-color="white"/>
<stop offset="1" stop-color="#5D5D5D"/>
</linearGradient>
<linearGradient id="paint36_linear_2303_1205" x1="0" y1="26.257" x2="1300" y2="26.257" gradientUnits="userSpaceOnUse">
<stop stop-color="#5D5D5D"/>
<stop offset="0.462901" stop-color="white"/>
<stop offset="1" stop-color="#5D5D5D"/>
</linearGradient>
<linearGradient id="paint37_linear_2303_1205" x1="0" y1="26.257" x2="1300" y2="26.257" gradientUnits="userSpaceOnUse">
<stop stop-color="#5D5D5D"/>
<stop offset="0.462901" stop-color="white"/>
<stop offset="1" stop-color="#5D5D5D"/>
</linearGradient>
<linearGradient id="paint38_linear_2303_1205" x1="0" y1="26.257" x2="1300" y2="26.257" gradientUnits="userSpaceOnUse">
<stop stop-color="#5D5D5D"/>
<stop offset="0.462901" stop-color="white"/>
<stop offset="1" stop-color="#5D5D5D"/>
</linearGradient>
<linearGradient id="paint39_linear_2303_1205" x1="0" y1="26.257" x2="1300" y2="26.257" gradientUnits="userSpaceOnUse">
<stop stop-color="#5D5D5D"/>
<stop offset="0.462901" stop-color="white"/>
<stop offset="1" stop-color="#5D5D5D"/>
</linearGradient>
<linearGradient id="paint40_linear_2303_1205" x1="0" y1="26.257" x2="1300" y2="26.257" gradientUnits="userSpaceOnUse">
<stop stop-color="#5D5D5D"/>
<stop offset="0.462901" stop-color="white"/>
<stop offset="1" stop-color="#5D5D5D"/>
</linearGradient>
<linearGradient id="paint41_linear_2303_1205" x1="0" y1="26.257" x2="1300" y2="26.257" gradientUnits="userSpaceOnUse">
<stop stop-color="#5D5D5D"/>
<stop offset="0.462901" stop-color="white"/>
<stop offset="1" stop-color="#5D5D5D"/>
</linearGradient>
<linearGradient id="paint42_linear_2303_1205" x1="0" y1="26.257" x2="1300" y2="26.257" gradientUnits="userSpaceOnUse">
<stop stop-color="#5D5D5D"/>
<stop offset="0.462901" stop-color="white"/>
<stop offset="1" stop-color="#5D5D5D"/>
</linearGradient>
<linearGradient id="paint43_linear_2303_1205" x1="0" y1="26.257" x2="1300" y2="26.257" gradientUnits="userSpaceOnUse">
<stop stop-color="#5D5D5D"/>
<stop offset="0.462901" stop-color="white"/>
<stop offset="1" stop-color="#5D5D5D"/>
</linearGradient>
<linearGradient id="paint44_linear_2303_1205" x1="0" y1="26.257" x2="1300" y2="26.257" gradientUnits="userSpaceOnUse">
<stop stop-color="#5D5D5D"/>
<stop offset="0.462901" stop-color="white"/>
<stop offset="1" stop-color="#5D5D5D"/>
</linearGradient>
<linearGradient id="paint45_linear_2303_1205" x1="0" y1="26.257" x2="1300" y2="26.257" gradientUnits="userSpaceOnUse">
<stop stop-color="#5D5D5D"/>
<stop offset="0.462901" stop-color="white"/>
<stop offset="1" stop-color="#5D5D5D"/>
</linearGradient>
<linearGradient id="paint46_linear_2303_1205" x1="0" y1="26.257" x2="1300" y2="26.257" gradientUnits="userSpaceOnUse">
<stop stop-color="#5D5D5D"/>
<stop offset="0.462901" stop-color="white"/>
<stop offset="1" stop-color="#5D5D5D"/>
</linearGradient>
<linearGradient id="paint47_linear_2303_1205" x1="0" y1="26.257" x2="1300" y2="26.257" gradientUnits="userSpaceOnUse">
<stop stop-color="#5D5D5D"/>
<stop offset="0.462901" stop-color="white"/>
<stop offset="1" stop-color="#5D5D5D"/>
</linearGradient>
<linearGradient id="paint48_linear_2303_1205" x1="0" y1="26.257" x2="1300" y2="26.257" gradientUnits="userSpaceOnUse">
<stop stop-color="#5D5D5D"/>
<stop offset="0.462901" stop-color="white"/>
<stop offset="1" stop-color="#5D5D5D"/>
</linearGradient>
<linearGradient id="paint49_linear_2303_1205" x1="0" y1="26.257" x2="1300" y2="26.257" gradientUnits="userSpaceOnUse">
<stop stop-color="#5D5D5D"/>
<stop offset="0.462901" stop-color="white"/>
<stop offset="1" stop-color="#5D5D5D"/>
</linearGradient>
<linearGradient id="paint50_linear_2303_1205" x1="0" y1="26.257" x2="1300" y2="26.257" gradientUnits="userSpaceOnUse">
<stop stop-color="#5D5D5D"/>
<stop offset="0.462901" stop-color="white"/>
<stop offset="1" stop-color="#5D5D5D"/>
</linearGradient>
<linearGradient id="paint51_linear_2303_1205" x1="0" y1="26.257" x2="1300" y2="26.257" gradientUnits="userSpaceOnUse">
<stop stop-color="#5D5D5D"/>
<stop offset="0.462901" stop-color="white"/>
<stop offset="1" stop-color="#5D5D5D"/>
</linearGradient>
<linearGradient id="paint52_linear_2303_1205" x1="0" y1="26.257" x2="1300" y2="26.257" gradientUnits="userSpaceOnUse">
<stop stop-color="#5D5D5D"/>
<stop offset="0.462901" stop-color="white"/>
<stop offset="1" stop-color="#5D5D5D"/>
</linearGradient>
<linearGradient id="paint53_linear_2303_1205" x1="0" y1="26.257" x2="1300" y2="26.257" gradientUnits="userSpaceOnUse">
<stop stop-color="#5D5D5D"/>
<stop offset="0.462901" stop-color="white"/>
<stop offset="1" stop-color="#5D5D5D"/>
</linearGradient>
<linearGradient id="paint54_linear_2303_1205" x1="0" y1="26.257" x2="1300" y2="26.257" gradientUnits="userSpaceOnUse">
<stop stop-color="#5D5D5D"/>
<stop offset="0.462901" stop-color="white"/>
<stop offset="1" stop-color="#5D5D5D"/>
</linearGradient>
<linearGradient id="paint55_linear_2303_1205" x1="0" y1="26.257" x2="1300" y2="26.257" gradientUnits="userSpaceOnUse">
<stop stop-color="#5D5D5D"/>
<stop offset="0.462901" stop-color="white"/>
<stop offset="1" stop-color="#5D5D5D"/>
</linearGradient>
</defs>
</svg>
