<svg width="50" height="50" viewBox="0 0 50 50" fill="none" xmlns="http://www.w3.org/2000/svg">
<g clip-path="url(#clip0_2303_1152)">
<path d="M25 0C38.8075 0 50 11.1925 50 25V42.5C50 44.4891 49.2099 46.3968 47.8033 47.8033C46.3968 49.2098 44.4892 50 42.5 50H26.25V39.0325C26.25 36.53 26.4025 33.9375 27.715 31.8075C28.6547 30.281 29.9117 28.9745 31.4007 27.9766C32.8897 26.9787 34.576 26.3127 36.345 26.0238L36.8238 25.9463C37.0212 25.8788 37.1925 25.7513 37.3138 25.5816C37.4351 25.4119 37.5003 25.2086 37.5003 25C37.5003 24.7914 37.4351 24.5881 37.3138 24.4184C37.1925 24.2487 37.0212 24.1212 36.8238 24.0537L36.345 23.9762C33.7602 23.554 31.3734 22.3305 29.5214 20.4786C27.6695 18.6267 26.446 16.2398 26.0238 13.655L25.9463 13.1763C25.8788 12.9789 25.7513 12.8075 25.5817 12.6862C25.412 12.5649 25.2086 12.4997 25 12.4997C24.7914 12.4997 24.5881 12.5649 24.4184 12.6862C24.2487 12.8075 24.1212 12.9789 24.0538 13.1763L23.9763 13.655C23.6874 15.4241 23.0215 17.1104 22.0235 18.5994C21.0256 20.0884 19.719 21.3454 18.1925 22.285C16.0625 23.5975 13.47 23.75 10.9675 23.75H0.0300293C0.683779 10.5237 11.6125 0 25 0Z" fill="#F06225"/>
<path d="M0 26.25H10.9675C13.47 26.25 16.0625 26.4025 18.1925 27.715C19.8575 28.741 21.259 30.1425 22.285 31.8075C23.5975 33.9375 23.75 36.53 23.75 39.0325V50H7.5C5.51088 50 3.60322 49.2098 2.1967 47.8033C0.790176 46.3968 0 44.4891 0 42.5L0 26.25ZM50 2.5C50 3.16304 49.7366 3.79893 49.2678 4.26777C48.7989 4.73661 48.163 5 47.5 5C46.837 5 46.2011 4.73661 45.7322 4.26777C45.2634 3.79893 45 3.16304 45 2.5C45 1.83696 45.2634 1.20107 45.7322 0.732233C46.2011 0.263392 46.837 0 47.5 0C48.163 0 48.7989 0.263392 49.2678 0.732233C49.7366 1.20107 50 1.83696 50 2.5Z" fill="#F06225"/>
</g>
<defs>
<clipPath id="clip0_2303_1152">
<rect width="50" height="50" fill="white"/>
</clipPath>
</defs>
</svg>
