<svg width="50" height="50" viewBox="0 0 50 50" fill="none" xmlns="http://www.w3.org/2000/svg">
<g clip-path="url(#clip0_2303_1140)">
<path d="M30 0H20V15.079C19.9579 17.8043 17.7356 20 15.0006 20H0V30H10.8579C13.51 30 16.0536 28.9464 17.9289 27.0711L27.0711 17.9289C28.9464 16.0536 30 13.51 30 10.8579V0Z" fill="url(#paint0_linear_2303_1140)"/>
<path d="M20 50H30V34.921C30.0421 32.1958 32.2644 30 34.9994 30H50V20H39.1421C36.49 20 33.9464 21.0536 32.0711 22.9289L22.9289 32.0711C21.0536 33.9464 20 36.49 20 39.1421V50Z" fill="url(#paint1_linear_2303_1140)"/>
</g>
<defs>
<linearGradient id="paint0_linear_2303_1140" x1="25" y1="-1.24637" x2="25" y2="42.2414" gradientUnits="userSpaceOnUse">
<stop stop-color="#75D8FC"/>
<stop offset="1" stop-color="#0072E5"/>
</linearGradient>
<linearGradient id="paint1_linear_2303_1140" x1="25" y1="-1.24637" x2="25" y2="42.2414" gradientUnits="userSpaceOnUse">
<stop stop-color="#75D8FC"/>
<stop offset="1" stop-color="#0072E5"/>
</linearGradient>
<clipPath id="clip0_2303_1140">
<rect width="50" height="50" fill="white"/>
</clipPath>
</defs>
</svg>
