<svg width="50" height="30" viewBox="0 0 50 30" fill="none" xmlns="http://www.w3.org/2000/svg">
<path d="M23.3892 27.9397C22.7284 28.6171 21.8309 28.9977 20.8963 28.9977C16.6916 28.9977 12.7291 28.9977 8.82691 28.9977C0.978446 28.9976 -2.95168 19.2706 2.598 13.5817L14.6865 1.19013C15.2415 0.621247 16.1904 1.02416 16.1904 1.82868L16.1905 12.7427L14.7934 14.1749C13.6835 15.3127 14.4695 17.258 16.0393 17.258L33.8096 17.258L23.3892 27.9397Z" fill="#3A04FF"/>
<path d="M26.6108 2.06091C27.2717 1.3835 28.1692 1.00293 29.1037 1.00293C33.3084 1.00293 37.2709 1.00293 41.1731 1.00294C49.0215 1.00296 52.9516 10.73 47.402 16.4188L35.3135 28.8105C34.7586 29.3794 33.8096 28.9764 33.8096 28.1719V17.2578L35.2066 15.8257C36.3166 14.688 35.5305 12.7425 33.9608 12.7425H16.1906L26.6108 2.06091Z" fill="#3A04FF"/>
</svg>
