<svg width="50" height="44" viewBox="0 0 50 44" fill="none" xmlns="http://www.w3.org/2000/svg">
<path d="M42.4711 35.4265L42.4743 35.4302L35.4416 41.5708C33.9997 42.861 32.1352 43.5918 30.1916 43.6278L30.1753 43.6282H6.07489C5.18274 43.6655 4.29372 43.4993 3.47663 43.1424C2.6451 42.7793 1.91049 42.2286 1.33198 41.5339C0.753433 40.8393 0.347239 40.0206 0.145364 39.1433C-0.0527582 38.2809 -0.0484588 37.3841 0.158874 36.5234L2.01439 27.1217C2.17946 26.3033 2.6157 25.5625 3.25422 25.0172L3.34521 24.9396C3.14768 24.6429 3.00321 24.3142 2.91849 23.9678C2.80611 23.5084 2.80218 23.0305 2.9057 22.5707L4.7649 13.1515L4.76777 13.1381C5.1296 11.4479 6.04097 9.92191 7.36241 8.79377L13.8013 3.1717C14.0992 2.83305 14.4263 2.5176 14.7801 2.22921C16.1896 1.08031 17.9435 0.426068 19.7679 0.368152L19.7983 0.367188L43.9279 0.435922C44.8191 0.399055 45.7071 0.565331 46.5233 0.921769C47.3549 1.28496 48.0894 1.83568 48.6679 2.53025C49.2464 3.22472 49.6527 4.0435 49.8546 4.92121C50.0529 5.78385 50.0483 6.67994 49.8413 7.54016L45.2323 30.9531L45.2256 30.9816C44.8209 32.7214 43.8533 34.2819 42.4711 35.4265Z" fill="#03301D"/>
<path d="M43.5513 2.59907C44.1852 2.56723 44.8178 2.6835 45.3986 2.93838C45.9794 3.19325 46.4922 3.57968 46.8961 4.06697C47.2999 4.55424 47.5836 5.12873 47.7246 5.74459C47.8655 6.36045 47.8597 7.00063 47.7076 7.61385L43.1184 31.0417C42.796 32.4337 42.0199 33.6805 40.911 34.5876C39.8021 35.4947 38.4226 36.0112 36.9879 36.0565H12.9767C12.3426 36.0879 11.7099 35.9717 11.129 35.7168C10.548 35.4619 10.0348 35.0756 9.63037 34.5887C9.22591 34.1016 8.94127 33.5273 8.79915 32.9117C8.65704 32.2959 8.66138 31.6555 8.81178 31.0417L10.6648 21.5637C10.7735 21.1011 11.0328 20.6873 11.4023 20.3866C11.7719 20.0857 12.231 19.915 12.7083 19.9008C17.0897 20.0559 21.298 20.3833 25.2205 21.7877L26.0863 27.2075C26.1075 27.3383 26.1769 27.4567 26.2809 27.5394C26.3849 27.6223 26.5161 27.6637 26.6492 27.6556C26.8019 27.6529 26.9513 27.6102 27.0821 27.5314C27.2129 27.4528 27.3205 27.3409 27.3938 27.2075L30.3551 21.7877L36.2778 19.9266C36.4211 19.881 36.55 19.7991 36.6518 19.6888C36.7535 19.5785 36.8246 19.4437 36.858 19.2978C36.8919 19.1686 36.8759 19.0316 36.8134 18.9136C36.751 18.7956 36.6464 18.7052 36.5202 18.6601L31.3249 16.8075L30.459 11.388C30.438 11.2563 30.3688 11.137 30.2651 11.0529C30.1613 10.9686 30.03 10.9253 29.8962 10.9313C29.7425 10.9347 29.5925 10.9789 29.4617 11.0591C29.3308 11.1394 29.2237 11.2529 29.1515 11.388L26.1902 16.8075C21.896 18.0332 17.4528 18.6654 12.9854 18.686C12.7709 18.7042 12.5553 18.6713 12.356 18.5903C12.1568 18.5093 11.9797 18.3826 11.8394 18.2202C11.6991 18.0579 11.5995 17.8646 11.5488 17.6565C11.4982 17.4484 11.4979 17.2312 11.548 17.0228L13.401 7.54486C13.7216 6.15356 14.496 4.90704 15.6035 3.99986C16.711 3.09267 18.0892 2.57602 19.5229 2.53027L43.5513 2.59907Z" fill="#86EE02"/>
</svg>
